<svg class="img-fluid" id="outputsvg" xmlns="http://www.w3.org/2000/svg" style="transform: none; transform-origin: 50% 50%; cursor: move; max-height: 344.62px;" width="340" height="356" viewBox="0 0 3400 3560"><g id="l5MBn4OEheRfw9GsCqRsi42" fill="rgb(255,192,0)" style="transform: none;"><g><path id="pkt6gJKi" d="M0 2070 l0 -1490 1315 0 1315 0 0 675 0 675 -123 0 c-129 0 -139 3 -171 50 -13 20 -16 50 -16 155 l0 130 -151 0 -151 0 -29 33 c-29 32 -29 34 -29 153 0 115 -1 119 -19 109 -31 -16 -247 -13 -280 5 -60 31 -61 38 -61 539 l0 456 -800 0 -800 0 0 -1490z m1408 1168 l3 -28 -600 0 -601 0 0 30 0 30 598 -2 597 -3 3 -27z m0 -395 l-3 -28 -597 -3 -598 -2 0 30 0 30 601 0 600 0 -3 -27z m0 -395 l3 -28 -600 0 -601 0 0 30 0 30 598 -2 597 -3 3 -27z m-438 -343 c238 -56 444 -261 507 -505 22 -86 22 -244 0 -330 -52 -198 -182 -356 -372 -451 -434 -215 -956 93 -982 582 -18 324 195 617 509 699 91 24 247 26 338 5z"></path><path id="pXzVLLNHn" d="M770 435 c0 -108 11 -140 62 -176 27 -20 49 -24 142 -29 120 -6 116 -3 136 -78 24 -90 142 -163 237 -146 99 18 157 72 187 178 l12 41 112 5 c91 5 117 10 139 26 56 42 66 66 71 173 l5 101 -552 0 -551 0 0 -95z"></path></g></g><g id="l6C7QAPU5tGN4dAfmayAkjl" fill="rgb(115,169,173)" style="transform: none;"><g><path id="p16eQfdN2b" d="M1652 3106 c3 -430 4 -455 22 -475 17 -19 30 -21 130 -21 61 0 116 4 123 8 30 19 33 70 33 503 l0 439 -155 0 -156 0 3 -454z"></path><path id="p156fQS7qv" d="M2010 2956 l0 -605 22 -15 c33 -23 250 -23 272 0 14 14 16 84 16 620 l0 604 -155 0 -155 0 0 -604z"></path><path id="p1G5kFvUZb" d="M2372 2785 c2 -618 6 -777 16 -787 9 -9 51 -14 132 -16 109 -3 120 -2 139 17 21 21 21 24 21 791 l0 770 -155 0 -155 0 2 -775z"></path><path id="pbl8pMHcE" d="M2730 2656 c0 -809 2 -906 16 -920 12 -13 40 -16 144 -16 118 0 130 2 140 19 7 13 10 319 10 920 l0 901 -155 0 -155 0 0 -904z"></path><path id="p1F3oYUUQ3" d="M3090 2465 c0 -1082 0 -1095 20 -1115 18 -18 33 -20 135 -20 102 0 117 2 135 20 20 20 20 33 20 1115 l0 1095 -155 0 -155 0 0 -1095z"></path></g></g><g id="l1CcFzZwORRkcx29KBD0daF" fill="rgb(47,85,151)" style="transform: none;"><g><path id="pzkuW8LfF" d="M630 2037 c-108 -33 -184 -80 -270 -166 -122 -123 -180 -265 -180 -441 0 -47 7 -113 15 -145 51 -201 209 -373 407 -442 97 -34 251 -42 353 -19 227 54 411 235 469 462 20 78 20 222 1 299 -51 201 -209 372 -407 443 -107 37 -281 42 -388 9z m439 -166 c19 -19 26 -54 37 -187 9 -109 -11 -153 -94 -217 -87 -67 -95 -65 -126 37 -14 46 -26 89 -26 95 0 6 -4 11 -9 11 -15 0 -24 -115 -11 -140 14 -27 -3 -52 -34 -48 -18 3 -21 9 -18 48 3 49 -7 154 -14 147 -2 -2 -17 -46 -32 -98 -23 -78 -32 -95 -50 -97 -27 -4 -124 68 -151 112 -29 47 -32 81 -22 206 14 160 -5 150 292 150 220 0 240 -1 258 -19z m-178 -487 c42 -21 87 -80 94 -121 3 -21 9 -54 14 -73 15 -72 -16 -137 -85 -178 -33 -19 -51 -22 -116 -20 -76 3 -78 4 -118 46 -64 66 -72 95 -54 183 18 87 38 123 83 151 60 38 123 42 182 12z"></path></g></g></svg>