<svg class="img-fluid" id="outputsvg" xmlns="http://www.w3.org/2000/svg" style="transform: none; transform-origin: 50% 50%; cursor: move; max-height: 344.62px;" width="357" height="350" viewBox="0 0 3570 3500"><g id="l6ndhXcnP4LvlMrE9AdyRox" fill="rgb(80,107,117)" style="transform: none;"><g><path id="pN9Sc9Zam" d="M1160 3490 c-42 -10 -75 -47 -89 -98 -15 -53 -15 -3022 0 -3077 15 -54 42 -81 94 -94 28 -7 169 -11 379 -11 l336 0 0 38 c0 47 22 80 66 98 49 20 689 20 738 0 44 -18 66 -52 66 -99 l0 -38 363 3 c398 3 393 3 434 65 17 26 18 113 18 1578 l0 1550 -23 33 c-13 17 -33 38 -45 45 -17 9 -272 12 -1162 14 -627 0 -1156 -3 -1175 -7z m570 -689 c0 -217 2 -260 14 -263 11 -2 0 -29 -41 -101 l-56 -98 -25 43 c-14 24 -28 45 -31 48 -3 3 -18 29 -33 58 -22 41 -25 52 -13 52 13 0 15 36 15 260 l0 260 85 0 85 0 0 -259z m450 -85 c0 -256 3 -345 12 -348 7 -3 -8 -39 -42 -98 l-53 -93 -19 24 c-29 39 -31 42 -66 107 -25 48 -29 62 -17 62 13 0 15 41 15 345 l0 345 85 0 85 0 0 -344z m440 -112 c0 -404 2 -458 16 -468 14 -10 9 -23 -36 -101 -29 -50 -53 -92 -55 -94 -7 -6 -29 22 -47 59 -9 19 -30 57 -45 84 -20 35 -24 50 -15 53 9 4 12 105 12 464 l0 459 85 0 85 0 0 -456z m450 -159 c0 -540 2 -615 15 -615 8 0 15 -2 15 -4 0 -12 -113 -196 -118 -192 -3 3 -29 47 -58 98 -39 69 -49 94 -38 96 12 3 14 91 14 618 l0 614 85 0 85 0 0 -615z m230 -1535 c0 -7 -335 -10 -985 -10 -650 0 -985 3 -985 10 0 7 335 10 985 10 650 0 985 -3 985 -10z m0 -270 c0 -7 -335 -10 -985 -10 -650 0 -985 3 -985 10 0 7 335 10 985 10 650 0 985 -3 985 -10z"></path></g></g><g id="l7eXc7GiSF7mx3pG3f0E1x8" fill="rgb(126,176,70)" style="transform: none;"><g><path id="pIWrMLN4W" d="M1530 2830 l0 -260 -30 0 c-16 0 -30 -2 -30 -4 0 -2 18 -35 40 -74 22 -38 40 -74 40 -81 0 -6 3 -11 8 -11 4 0 20 -24 36 -53 56 -100 44 -105 140 61 47 83 86 152 86 156 0 3 -13 6 -30 6 l-30 0 0 260 0 260 -115 0 -115 0 0 -260z"></path><path id="p1BCpHrBHg" d="M1980 2745 l0 -345 -30 0 c-16 0 -30 -2 -30 -5 0 -3 20 -41 45 -84 25 -43 45 -83 45 -89 0 -7 3 -12 8 -12 4 0 22 -27 41 -61 l33 -61 80 139 c44 76 84 142 89 147 16 18 10 26 -21 26 l-30 0 0 345 0 345 -115 0 -115 0 0 -345z"></path><path id="phTmpeO87" d="M2420 2630 l0 -461 -29 -5 c-22 -5 -28 -10 -23 -23 3 -9 9 -18 12 -21 12 -9 100 -166 100 -178 0 -7 3 -12 8 -12 4 0 16 -16 26 -35 11 -19 22 -35 26 -35 8 0 179 295 171 297 -3 1 -18 4 -33 7 l-28 6 0 460 0 460 -115 0 -115 0 0 -460z"></path><path id="piU1KBilX" d="M2870 2475 l0 -615 -30 0 c-16 0 -30 -3 -30 -6 0 -18 174 -304 180 -297 5 4 46 73 93 153 l85 145 -34 3 -34 3 0 615 0 614 -115 0 -115 0 0 -615z"></path></g></g><g id="l32RcjAlDzuW8mTtyHB8mOj" fill="rgb(246,197,36)" style="transform: none;"><g><path id="p15STDrk0S" d="M862 3488 c-7 -7 -12 -44 -12 -98 l0 -86 -47 -12 c-26 -7 -85 -31 -132 -53 l-84 -39 -56 60 c-31 33 -63 60 -71 60 -20 0 -280 -261 -280 -280 0 -8 27 -42 60 -75 l59 -60 -29 -58 c-16 -32 -39 -90 -52 -128 l-22 -69 -88 0 c-76 0 -89 -2 -98 -19 -6 -12 -10 -93 -10 -195 0 -213 -4 -206 115 -206 l83 0 12 -48 c6 -27 29 -84 50 -128 l39 -79 -60 -60 c-32 -33 -59 -67 -59 -75 0 -19 260 -280 280 -280 8 0 40 27 72 61 l57 61 68 -34 c38 -19 97 -43 131 -53 l62 -19 0 -86 c0 -54 5 -91 12 -98 7 -7 39 -12 75 -12 l63 0 -2 177 -3 177 -70 12 c-311 52 -555 331 -572 654 -8 132 14 237 74 360 82 167 241 301 418 355 44 13 97 26 118 30 l37 6 0 128 c0 114 2 132 24 174 l23 47 -86 0 c-54 0 -92 -5 -99 -12z"></path></g></g><g id="l7WP1vdTl0vHShxrgc7FWyh" fill="rgb(239,205,111)" style="transform: none;"><g><path id="ptAhnNgZo" d="M935 3074 c-109 -21 -242 -93 -323 -174 -124 -125 -181 -252 -189 -426 -13 -248 97 -456 310 -587 66 -40 199 -87 248 -87 l29 0 0 645 c0 355 -1 645 -2 644 -2 0 -34 -7 -73 -15z"></path></g></g><g id="l7bKwFH7xASBjSTi44wGMWL" fill="rgb(255,255,255)" style="transform: none;"><g><path id="paMQcJlox" d="M1292 938 c-16 -16 -15 -43 2 -57 10 -8 286 -10 1026 -9 952 3 1013 4 1024 20 8 13 8 23 0 35 -11 17 -72 18 -1026 21 -780 2 -1017 -1 -1026 -10z"></path><path id="pJf1xRIiA" d="M1292 668 c-16 -16 -15 -43 2 -57 10 -8 286 -10 1026 -9 952 3 1013 4 1024 20 8 13 8 23 0 35 -11 17 -72 18 -1026 21 -780 2 -1017 -1 -1026 -10z"></path></g></g><g id="lMx1gH4AXEFrBByn1OKEb5" fill="rgb(57,92,102)" style="transform: none;"><g><path id="p13HUmYNR2" d="M1979 293 c-27 -7 -39 -50 -39 -143 0 -98 11 -135 44 -144 27 -7 645 -7 672 0 33 9 44 46 44 144 0 98 -11 135 -44 144 -24 7 -653 6 -677 -1z"></path></g></g></svg>