<svg class="img-fluid" id="outputsvg" xmlns="http://www.w3.org/2000/svg" style="transform: none; transform-origin: 50% 50%; cursor: move; max-height: 344.62px;" width="356" height="340" viewBox="0 0 3560 3400"><g id="l5yMOwOpIYdtZQBbFtw1xrQ" fill="rgb(41,171,226)" style="transform: none;"><g><path id="pxETLtOG7" d="M465 3386 c-53 -23 -55 -36 -55 -420 l0 -353 -75 -12 c-41 -7 -77 -16 -80 -21 -5 -7 99 -621 120 -714 12 -54 -22 23 -105 239 -69 178 -100 247 -121 268 -50 47 -117 30 -139 -37 -10 -31 -1 -59 140 -417 83 -211 158 -395 168 -408 47 -63 56 -66 270 -69 216 -4 253 2 295 46 31 33 317 783 317 833 0 67 -95 105 -143 57 -13 -13 -54 -105 -92 -205 -39 -101 -73 -183 -76 -183 -3 0 16 96 43 213 87 379 87 378 75 382 -7 2 -51 9 -99 15 l-88 12 0 353 c0 210 -4 364 -10 380 -14 36 -68 58 -109 44 -59 -21 -61 -32 -61 -419 l0 -350 -25 0 -25 0 0 350 c0 388 -1 398 -61 419 -18 6 -32 11 -33 11 -1 -1 -15 -7 -31 -14z"></path><path id="pWUR8cTS6" d="M1595 3392 c-35 -12 -52 -26 -74 -62 -21 -35 -21 -38 -22 -835 l0 -800 -20 48 c-37 93 -52 210 -54 440 -2 208 -3 220 -23 240 -26 25 -85 28 -108 5 -24 -24 -33 -88 -34 -234 -1 -387 72 -626 218 -712 l47 -27 242 -3 c230 -3 244 -2 292 19 99 42 173 163 211 344 23 106 40 475 26 549 -10 51 -37 76 -84 76 -70 0 -72 -6 -76 -271 -4 -243 -22 -375 -60 -445 -14 -27 -15 39 -16 774 0 681 -2 807 -14 831 -43 82 -173 87 -218 9 -10 -18 -14 -141 -18 -518 l-5 -495 -25 0 -25 0 -5 502 -5 501 -24 26 c-14 14 -41 30 -60 36 -39 11 -37 11 -66 2z"></path><path id="pL951CwbI" d="M2820 3389 c-54 -20 -55 -25 -58 -415 l-3 -361 -75 -13 c-41 -7 -76 -16 -79 -20 -3 -5 103 -624 121 -700 15 -65 -22 14 -105 228 -50 128 -95 241 -101 251 -13 25 -64 45 -95 37 -36 -9 -65 -45 -65 -82 0 -36 282 -763 313 -808 39 -56 81 -66 290 -66 202 0 231 5 277 53 17 17 66 135 153 364 181 483 170 447 153 487 -8 19 -23 39 -34 45 -31 16 -77 13 -101 -6 -11 -10 -47 -87 -82 -178 -33 -88 -65 -171 -70 -184 -27 -68 -13 14 46 269 36 156 65 287 65 291 0 3 -28 9 -62 13 -35 4 -80 10 -100 13 l-38 6 0 363 0 363 -23 26 c-31 36 -86 38 -122 5 l-25 -23 0 -364 0 -363 -30 0 -30 0 0 356 c0 235 -4 362 -11 376 -8 16 -68 51 -81 47 -2 0 -14 -5 -28 -10z"></path><path id="pv9TJh9mB" d="M993 3211 c-61 -38 -64 -54 -61 -323 l3 -243 73 -9 c48 -6 72 -13 72 -22 0 -13 -26 -133 -36 -167 -5 -17 -3 -17 17 -7 12 7 43 10 70 8 l49 -5 0 339 c0 367 -3 390 -54 423 -40 27 -96 29 -133 6z"></path><path id="pwFlAkpKt" d="M1314 3220 c-11 -4 -33 -22 -47 -40 l-27 -32 0 -349 0 -350 31 23 c21 16 45 23 74 23 29 0 53 -7 74 -23 l31 -23 0 375 0 374 -34 16 c-37 17 -69 19 -102 6z"></path><path id="pyfIdLi5V" d="M2128 3219 c-17 -9 -18 -38 -18 -384 0 -206 2 -375 5 -375 2 0 19 9 37 20 39 24 67 25 113 6 l35 -15 0 338 c0 328 -1 339 -21 365 -39 49 -109 70 -151 45z"></path><path id="p1FY2W8rw2" d="M2433 3215 c-18 -8 -42 -29 -53 -47 -19 -31 -20 -50 -20 -387 0 -333 1 -353 18 -345 9 4 37 9 62 11 56 5 101 -21 129 -74 11 -21 20 -36 20 -33 1 3 -10 65 -24 139 -14 74 -24 135 -23 136 2 1 17 7 33 12 l30 10 3 249 c2 235 1 251 -18 282 -20 33 -72 62 -107 62 -10 -1 -33 -7 -50 -15z"></path><path id="p1GkbwJ9cg" d="M2350 2070 c-1 -245 -69 -475 -170 -579 -54 -55 -130 -91 -194 -91 l-50 0 34 -35 c69 -71 87 -75 363 -75 275 0 286 2 352 65 l40 37 -25 16 c-66 43 -82 72 -216 417 l-133 340 -1 -95z"></path><path id="p9DH75asM" d="M1082 1822 c-108 -289 -128 -334 -160 -365 -20 -20 -52 -42 -69 -50 -31 -12 -32 -14 -17 -35 8 -12 39 -36 67 -52 l52 -30 253 0 c283 0 292 2 361 74 l35 36 -40 0 c-53 0 -134 40 -182 89 -103 106 -165 317 -175 594 l-2 68 -123 -329z"></path><path id="p19I006X2V" d="M555 1381 c-162 -40 -229 -236 -123 -357 139 -158 389 -68 389 141 0 106 -62 185 -165 212 -55 14 -57 14 -101 4z"></path><path id="p1AJ2S8lKB" d="M1711 1375 c-86 -27 -151 -117 -151 -210 0 -187 219 -288 361 -167 106 91 106 243 0 334 -39 33 -105 59 -148 57 -10 0 -38 -6 -62 -14z"></path><path id="pt3EHeuwr" d="M2898 1376 c-137 -37 -205 -194 -137 -317 29 -52 101 -104 159 -114 133 -23 254 82 254 220 0 148 -133 249 -276 211z"></path><path id="p49Aon4UF" d="M1504 1246 c-3 -8 -4 -23 -2 -33 3 -11 6 -6 9 15 6 34 2 42 -7 18z"></path><path id="pXYswx9O8" d="M2048 1182 c3 -55 0 -79 -18 -121 -41 -95 -154 -171 -254 -171 -117 0 -230 90 -262 208 -11 42 -13 28 -13 -146 -1 -192 -7 -222 -31 -144 -6 20 -14 44 -16 52 -4 10 -12 6 -30 -18 -14 -18 -45 -44 -69 -58 -39 -23 -43 -28 -35 -49 34 -90 83 -155 149 -197 l45 -28 258 0 c236 0 262 2 297 19 52 27 108 93 141 164 l27 61 -38 19 c-21 10 -52 34 -68 53 l-30 33 -20 -57 -19 -57 -1 253 c-1 138 -5 252 -9 252 -4 0 -6 -31 -4 -68z"></path><path id="pYuN2rgTz" d="M1120 1214 c-149 -65 -179 -269 -55 -372 89 -73 218 -67 298 14 47 47 61 83 62 155 0 56 -4 73 -30 114 -56 90 -180 130 -275 89z"></path><path id="pkF3iNFwQ" d="M2232 1209 c-101 -50 -149 -183 -103 -284 47 -102 159 -155 266 -126 158 43 209 258 88 373 -63 60 -172 76 -251 37z"></path><path id="pk8l441PO" d="M1722 441 c-92 -24 -162 -116 -162 -215 0 -69 16 -111 61 -155 44 -45 92 -64 159 -64 185 0 289 221 168 359 -56 63 -149 94 -226 75z"></path></g></g></svg>