<svg class="img-fluid" id="outputsvg" xmlns="http://www.w3.org/2000/svg" style="transform: none; transform-origin: 50% 50%; cursor: move;" width="140" height="161" viewBox="0 0 1400 1610"><g id="l41iS37dnIP8mhKTgDFtk2z" fill="rgb(12,125,128)" style="transform: none;"><g><path id="pjqEraP8o" d="M90 1580 c0 -24 4 -30 23 -31 12 0 293 0 625 1 l602 2 0 -711 0 -711 30 0 30 0 0 740 0 740 -655 0 -655 0 0 -30z"></path><path id="pjbnGASqF" d="M1140 1235 c0 -8 7 -15 15 -15 8 0 15 -7 15 -15 0 -8 -7 -15 -15 -15 -8 0 -15 -7 -15 -15 0 -10 11 -15 35 -15 35 0 35 0 35 45 0 45 0 45 -35 45 -24 0 -35 -5 -35 -15z"></path></g></g><g id="l3oF7R5ZPvGmU8uuRthezEB" fill="rgb(83,184,187)" style="transform: none;"><g><path id="pko9pxYzA" d="M0 910 l0 -620 135 0 135 0 0 -145 0 -145 520 0 520 0 0 765 0 765 -655 0 -655 0 0 -620z m550 450 c0 -6 -75 -10 -205 -10 -130 0 -205 4 -205 10 0 6 75 10 205 10 130 0 205 -4 205 -10z m620 0 c0 -6 -75 -10 -205 -10 -130 0 -205 4 -205 10 0 6 75 10 205 10 130 0 205 -4 205 -10z m-620 -155 c0 -13 -29 -15 -205 -15 -176 0 -205 2 -205 15 0 13 29 15 205 15 176 0 205 -2 205 -15z m630 0 c0 -13 -30 -15 -210 -15 -180 0 -210 2 -210 15 0 13 30 15 210 15 180 0 210 -2 210 -15z m-630 -155 c0 -6 -75 -10 -205 -10 -130 0 -205 4 -205 10 0 6 75 10 205 10 130 0 205 -4 205 -10z m620 0 c0 -6 -75 -10 -205 -10 -130 0 -205 4 -205 10 0 6 75 10 205 10 130 0 205 -4 205 -10z m-620 -150 c0 -6 -75 -10 -205 -10 -130 0 -205 4 -205 10 0 6 75 10 205 10 130 0 205 -4 205 -10z m620 0 c0 -6 -75 -10 -205 -10 -130 0 -205 4 -205 10 0 6 75 10 205 10 130 0 205 -4 205 -10z m-620 -150 c0 -6 -75 -10 -205 -10 -130 0 -205 4 -205 10 0 6 75 10 205 10 130 0 205 -4 205 -10z m620 0 c0 -6 -75 -10 -205 -10 -130 0 -205 4 -205 10 0 6 75 10 205 10 130 0 205 -4 205 -10z m-85 -194 c66 -30 120 -91 139 -157 20 -65 20 -92 1 -155 -53 -180 -277 -242 -417 -116 -137 124 -108 340 55 422 77 38 149 40 222 6z"></path><path id="pnCIp2RXr" d="M19 253 c6 -10 60 -70 120 -133 l110 -115 1 133 0 132 -120 0 c-112 0 -120 -1 -111 -17z"></path></g></g><g id="l5soTLjr5Ev00zglCXGSi1d" fill="rgb(59,180,242)" style="transform: none;"><g><path id="pCEPMIDGp" d="M815 448 c30 -105 172 -150 260 -84 33 25 65 72 65 96 0 6 -57 10 -166 10 l-165 0 6 -22z"></path><path id="pz7UcVmhm" d="M935 285 c-14 -13 -25 -36 -25 -50 0 -31 41 -75 70 -75 29 0 70 44 70 75 0 31 -41 75 -70 75 -11 0 -32 -11 -45 -25z"></path></g></g></svg>