<svg class="img-fluid" id="outputsvg" xmlns="http://www.w3.org/2000/svg" style="transform: none; transform-origin: 50% 50%; cursor: move;" width="140" height="161" viewBox="0 0 1400 1610"><g id="l7HUyTNddEHcHCM9Ljnr9pq" fill="rgb(1,1,1)" style="transform: none;"><g style="transform: none;"><path id="p15BiCQtYR" d="M0 1555 l0 -55 640 0 640 0 0 -750 0 -750 60 0 60 0 0 80 c0 60 -3 80 -13 80 -21 0 -27 180 -27 833 l0 577 -589 0 c-324 0 -603 3 -620 6 -17 4 -31 13 -31 20 0 10 -16 14 -60 14 l-60 0 0 -55z"></path><path id="p4GdNqjQ1" d="M110 1360 l0 -40 235 0 235 0 0 40 0 40 -235 0 -235 0 0 -40z"></path><path id="p17MhUzFAb" d="M730 1360 l0 -40 235 0 235 0 0 40 0 40 -235 0 -235 0 0 -40z"></path><path id="p19i8IxKdc" d="M110 1205 l0 -35 235 0 235 0 0 35 0 35 -235 0 -235 0 0 -35z"></path><path id="pwu5umjfD" d="M730 1205 l0 -35 235 0 235 0 0 35 0 35 -235 0 -235 0 0 -35z"></path><path id="paAJo8CpM" d="M110 1050 l0 -40 235 0 235 0 0 40 0 40 -235 0 -235 0 0 -40z"></path><path id="pTOvesn3x" d="M730 1050 l0 -40 235 0 235 0 0 40 0 40 -235 0 -235 0 0 -40z"></path><path id="p14Hl6TIQ" d="M110 900 l0 -40 235 0 235 0 0 40 0 40 -235 0 -235 0 0 -40z"></path><path id="p194GJQ2Qi" d="M730 900 l0 -40 235 0 235 0 0 40 0 40 -235 0 -235 0 0 -40z"></path><path id="p11qA7amSv" d="M110 750 l0 -40 235 0 235 0 0 40 0 40 -235 0 -235 0 0 -40z"></path><path id="px91FSYZg" d="M730 750 l0 -40 235 0 235 0 0 40 0 40 -235 0 -235 0 0 -40z"></path><path id="pilOZMZFs" d="M832 580 c-45 -23 -69 -43 -91 -77 -45 -67 -54 -105 -49 -202 5 -100 25 -148 86 -203 61 -55 115 -71 219 -66 104 5 153 26 207 90 89 104 88 300 -2 400 -57 63 -119 88 -223 88 -76 0 -93 -4 -147 -30z m239 -164 c-13 -14 -39 -32 -57 -41 -32 -15 -37 -15 -76 3 -24 11 -52 29 -62 41 l-19 21 118 0 118 0 -22 -24z m-67 -169 c16 -25 -16 -56 -38 -37 -19 15 -20 32 -4 48 15 15 28 11 42 -11z"></path><path id="pRueARpbp" d="M0 160 l0 -160 150 0 150 0 0 160 0 160 -150 0 -150 0 0 -160z m220 10 c0 -38 -1 -70 -3 -70 -2 0 -31 32 -66 70 l-62 70 65 0 66 0 0 -70z"></path></g></g><g id="l4RzSMNZ6qE3Vddp88OQVcZ" fill="rgb(3,50,51)" style="transform: none;"><g style="transform: none;"><path id="pZBnN6FKv" d="M220 1560 c0 -20 7 -20 555 -20 l555 0 0 -612 c0 -337 3 -623 6 -635 4 -13 13 -23 20 -23 12 0 14 104 14 655 l0 655 -575 0 c-568 0 -575 0 -575 -20z"></path><path id="pbjdwdxCl" d="M220 1520 c0 -7 187 -10 540 -10 l540 0 3 -622 2 -623 3 633 2 632 -545 0 c-357 0 -545 -3 -545 -10z"></path><path id="pEyK1kiMn" d="M110 1205 l0 -45 235 0 235 0 0 45 0 45 -235 0 -235 0 0 -45z m343 -2 c-56 -2 -151 -2 -210 0 -59 1 -14 3 102 3 116 0 164 -2 108 -3z"></path><path id="pYngqOfx8" d="M730 1205 l0 -45 235 0 235 0 0 45 0 45 -235 0 -235 0 0 -45z m343 -2 c-56 -2 -151 -2 -210 0 -59 1 -14 3 102 3 116 0 164 -2 108 -3z"></path></g></g><g id="lWm0QdIqKCWckte1UvuJkX" fill="rgb(12,125,128)" style="transform: none;"><g style="transform: none;"><path id="pjqEraP8o" d="M90 1580 c0 -24 4 -30 23 -31 12 0 293 0 625 1 l602 2 0 -711 0 -711 30 0 30 0 0 740 0 740 -655 0 -655 0 0 -30z"></path><path id="ppN5uVuCr" d="M80 1521 c14 -4 297 -4 630 -1 l605 6 -630 1 c-347 1 -619 -2 -605 -6z"></path><path id="pjbnGASqF" d="M1140 1235 c0 -8 7 -15 15 -15 8 0 15 -7 15 -15 0 -8 -7 -15 -15 -15 -8 0 -15 -7 -15 -15 0 -10 11 -15 35 -15 35 0 35 0 35 45 0 45 0 45 -35 45 -24 0 -35 -5 -35 -15z"></path></g></g><g id="l5Zwo3UEvhs1tAqnY7EBxiX" fill="rgb(83,184,187)" style="transform: none;"><g style="transform: none;"><path id="pko9pxYzA" d="M0 910 l0 -620 135 0 135 0 0 -145 0 -145 520 0 520 0 0 765 0 765 -655 0 -655 0 0 -620z m550 450 c0 -6 -75 -10 -205 -10 -130 0 -205 4 -205 10 0 6 75 10 205 10 130 0 205 -4 205 -10z m620 0 c0 -6 -75 -10 -205 -10 -130 0 -205 4 -205 10 0 6 75 10 205 10 130 0 205 -4 205 -10z m-620 -155 c0 -13 -29 -15 -205 -15 -176 0 -205 2 -205 15 0 13 29 15 205 15 176 0 205 -2 205 -15z m630 0 c0 -13 -30 -15 -210 -15 -180 0 -210 2 -210 15 0 13 30 15 210 15 180 0 210 -2 210 -15z m-630 -155 c0 -6 -75 -10 -205 -10 -130 0 -205 4 -205 10 0 6 75 10 205 10 130 0 205 -4 205 -10z m620 0 c0 -6 -75 -10 -205 -10 -130 0 -205 4 -205 10 0 6 75 10 205 10 130 0 205 -4 205 -10z m-620 -150 c0 -6 -75 -10 -205 -10 -130 0 -205 4 -205 10 0 6 75 10 205 10 130 0 205 -4 205 -10z m620 0 c0 -6 -75 -10 -205 -10 -130 0 -205 4 -205 10 0 6 75 10 205 10 130 0 205 -4 205 -10z m-620 -150 c0 -6 -75 -10 -205 -10 -130 0 -205 4 -205 10 0 6 75 10 205 10 130 0 205 -4 205 -10z m620 0 c0 -6 -75 -10 -205 -10 -130 0 -205 4 -205 10 0 6 75 10 205 10 130 0 205 -4 205 -10z m-85 -194 c66 -30 120 -91 139 -157 20 -65 20 -92 1 -155 -53 -180 -277 -242 -417 -116 -137 124 -108 340 55 422 77 38 149 40 222 6z"></path><path id="pnCIp2RXr" d="M19 253 c6 -10 60 -70 120 -133 l110 -115 1 133 0 132 -120 0 c-112 0 -120 -1 -111 -17z"></path></g></g><g id="l5soTLjr5Ev00zglCXGSi1d" fill="rgb(59,180,242)" style="transform: none;"><g style="transform: none;"><path id="pCEPMIDGp" d="M815 448 c30 -105 172 -150 260 -84 33 25 65 72 65 96 0 6 -57 10 -166 10 l-165 0 6 -22z"></path><path id="pz7UcVmhm" d="M935 285 c-14 -13 -25 -36 -25 -50 0 -31 41 -75 70 -75 29 0 70 44 70 75 0 31 -41 75 -70 75 -11 0 -32 -11 -45 -25z"></path></g></g></svg>