<svg class="img-fluid" id="outputsvg" xmlns="http://www.w3.org/2000/svg" style="transform: none; transform-origin: 50% 50%; cursor: move; max-height: 340.84px;" width="315" height="356" viewBox="0 0 3150 3560"><g id="l7MDUls7v86eO9gFgr8StNl" fill="rgb(255,192,0)" style="transform: none;"><g><path id="pk1qlE7Bv" d="M1001 3549 c-95 -19 -185 -99 -218 -193 -17 -48 -18 -119 -18 -1092 l0 -1040 30 -60 c29 -56 51 -76 500 -436 267 -214 496 -391 529 -408 50 -25 70 -30 130 -29 39 0 80 4 91 8 16 6 37 -7 105 -64 244 -208 444 -274 612 -202 96 42 178 138 178 209 0 49 -18 83 -67 130 -55 53 -117 82 -296 139 -142 45 -158 52 -145 66 9 8 157 128 329 266 310 248 314 253 349 321 l35 69 0 1046 0 1046 -28 57 c-33 67 -99 129 -165 155 -44 17 -103 18 -977 20 -511 0 -950 -3 -974 -8z m587 -413 c62 -22 99 -55 127 -110 91 -182 -77 -391 -258 -322 -82 31 -147 125 -147 212 0 51 36 136 74 173 58 56 130 73 204 47z m332 -101 l0 -104 107 -3 c74 -2 108 -7 111 -15 3 -10 -23 -13 -107 -13 l-111 0 0 -90 0 -90 125 0 c104 0 125 -2 125 -15 0 -13 -23 -15 -145 -15 l-145 0 0 225 c0 218 1 225 20 225 19 0 20 -7 20 -105z m430 0 l0 -104 107 -3 c74 -2 108 -7 111 -15 3 -10 -23 -13 -107 -13 l-111 0 0 -90 0 -90 125 0 c104 0 125 -2 125 -15 0 -13 -23 -15 -145 -15 l-145 0 0 225 c0 218 1 225 20 225 19 0 20 -7 20 -105z m-622 -687 c6 -7 123 -212 260 -455 211 -373 248 -445 238 -459 -8 -10 -20 -14 -32 -10 -13 4 -104 156 -272 452 -208 368 -250 450 -241 465 11 22 32 25 47 7z m655 -42 c48 -20 105 -84 128 -146 18 -48 20 -61 10 -105 -23 -100 -99 -186 -176 -201 -65 -12 -161 53 -202 135 -27 54 -24 144 6 203 55 107 146 152 234 114z m-713 -414 c58 -36 97 -93 111 -162 10 -49 9 -61 -11 -113 -27 -72 -67 -119 -126 -147 -40 -20 -50 -21 -88 -10 -56 15 -109 59 -143 118 -67 114 -7 280 122 339 39 17 79 10 135 -25z m364 -1056 c18 -7 47 -31 64 -52 31 -38 55 -111 42 -127 -4 -5 -47 4 -95 19 -98 30 -120 26 -120 -22 0 -28 4 -30 90 -59 50 -16 91 -30 93 -31 13 -7 -32 -49 -76 -71 -43 -21 -61 -24 -99 -19 -86 11 -148 72 -167 163 -15 69 40 169 109 199 40 17 117 17 159 0z m493 -402 c192 -60 261 -92 299 -137 39 -46 32 -78 -27 -131 -99 -89 -210 -96 -362 -23 -73 34 -209 131 -260 184 l-27 29 82 66 c46 37 91 67 100 67 9 1 97 -24 195 -55z"></path><path id="pyA7ymX2z" d="M1445 3110 c-11 -4 -33 -22 -50 -40 -28 -30 -30 -37 -34 -127 -4 -114 8 -162 50 -197 27 -23 39 -26 111 -26 139 0 173 38 173 195 0 114 -15 153 -68 185 -34 21 -142 27 -182 10z"></path><path id="px9fWbDj1" d="M2235 2210 c-25 -26 -30 -40 -33 -96 -5 -74 16 -145 51 -169 25 -18 96 -20 130 -4 41 19 61 66 61 144 0 39 -6 81 -13 95 -28 53 -41 60 -106 60 -55 0 -64 -3 -90 -30z"></path><path id="p1DM01WF0E" d="M1525 1836 c-41 -19 -57 -49 -63 -123 -6 -75 16 -143 53 -167 28 -18 93 -21 128 -5 34 15 58 61 64 122 14 140 -72 222 -182 173z"></path></g></g><g id="l2DsHU8QKsuQclaRY2tjNba" fill="rgb(255,148,0)" style="transform: none;"><g><path id="p18OGkaAQ9" d="M445 3226 c-137 -45 -265 -90 -282 -99 -50 -26 -92 -73 -124 -135 -50 -98 -44 -139 60 -456 433 -1312 542 -1638 556 -1665 24 -47 91 -108 144 -132 25 -11 172 -67 326 -124 154 -57 311 -115 350 -130 38 -14 65 -22 60 -17 -6 5 -131 105 -280 222 -466 368 -469 371 -507 447 l-33 68 -3 1052 c-1 579 -6 1053 -10 1052 -4 0 -119 -37 -257 -83z"></path></g></g><g id="l1ZAO4SL30HMVlJJo1p4myp" fill="rgb(24,60,92)" style="transform: none;"><g><path id="pmiA6ykgt" d="M1426 3165 c-88 -31 -146 -130 -146 -249 0 -81 21 -141 67 -188 53 -54 104 -71 201 -67 70 4 86 8 124 34 28 20 53 50 72 87 25 49 29 68 29 137 0 130 -50 210 -155 247 -51 18 -141 17 -192 -1z m171 -95 c48 -29 67 -73 67 -155 0 -113 -44 -165 -142 -165 -94 0 -137 64 -130 191 3 59 8 72 33 100 17 17 39 35 50 39 35 15 89 11 122 -10z"></path><path id="pvfEPfTHB" d="M1850 2915 l0 -255 175 0 175 0 0 45 0 45 -125 0 -125 0 0 60 0 60 111 0 110 0 -3 43 -3 42 -107 3 -108 3 0 104 0 105 -50 0 -50 0 0 -255z"></path><path id="p5U7HGiX0" d="M2280 2915 l0 -255 175 0 175 0 0 45 0 45 -125 0 -125 0 0 60 0 60 111 0 110 0 -3 43 -3 42 -107 3 -108 3 0 104 0 105 -50 0 -50 0 0 -255z"></path><path id="p9DG85Ljh" d="M1669 2390 c-23 -14 -41 -62 -32 -86 4 -11 120 -219 257 -461 251 -445 263 -463 316 -463 29 0 60 36 60 68 0 19 -87 183 -251 473 -138 244 -256 450 -262 456 -17 17 -69 25 -88 13z"></path><path id="pXIyES1Nb" d="M2258 2348 c-50 -13 -108 -66 -138 -124 -21 -42 -25 -63 -25 -139 0 -101 13 -139 68 -195 97 -100 250 -91 334 19 37 48 63 125 63 187 0 108 -79 221 -173 249 -57 17 -76 17 -129 3z m114 -155 c28 -32 40 -64 40 -108 0 -82 -62 -142 -118 -116 -35 16 -68 92 -61 144 10 77 98 127 139 80z"></path><path id="pvqDQTVLp" d="M1505 1946 c-49 -21 -94 -65 -123 -120 -23 -44 -27 -63 -27 -141 0 -80 3 -95 27 -137 67 -113 190 -158 294 -107 114 54 170 207 129 345 -38 128 -189 208 -300 160z m124 -152 c56 -47 62 -147 11 -202 -48 -51 -107 -32 -136 43 -27 72 -5 146 51 171 40 18 39 18 74 -12z"></path></g></g></svg>