<svg class="img-fluid" id="outputsvg" xmlns="http://www.w3.org/2000/svg" style="transform: none; transform-origin: 50% 50%; cursor: move;" width="135" height="161" viewBox="0 0 1350 1610"><g id="l32UA5zLeYhBTYPZfrte7DE" fill="rgb(245,251,254)" style="transform: none;"><g><path id="p1FpFat4EZ" d="M0 1440 l0 -170 370 0 370 0 0 -45 0 -45 -310 0 -310 0 0 -40 0 -40 316 0 c295 0 315 -1 312 -17 -3 -17 -27 -18 -316 -21 l-312 -2 0 -40 0 -40 305 0 c294 0 305 -1 315 -20 11 -20 8 -20 -305 -20 l-315 0 0 -45 0 -45 380 0 380 0 0 25 c0 23 4 25 45 25 l45 0 0 -450 0 -450 190 0 190 0 0 490 0 490 -257 2 -258 3 -3 313 -2 312 -415 0 -415 0 0 -170z"></path><path id="phCKLE1Mb" d="M1320 1595 c0 -8 7 -15 15 -15 8 0 15 7 15 15 0 8 -7 15 -15 15 -8 0 -15 -7 -15 -15z"></path><path id="pe2T4ktP" d="M867 1543 c-4 -3 -7 -91 -7 -195 l0 -188 65 0 65 0 0 195 0 195 -58 0 c-32 0 -62 -3 -65 -7z"></path><path id="puOblRqdf" d="M1007 1543 c-4 -3 -7 -91 -7 -195 l0 -188 65 0 64 0 4 143 3 142 2 -142 2 -143 70 0 70 0 -2 193 -3 192 -63 3 c-57 3 -63 1 -72 -20 l-9 -23 0 23 c-1 20 -6 22 -59 22 -32 0 -62 -3 -65 -7z"></path><path id="ppWKIcJa0" d="M857 1144 c-4 -4 -7 -34 -7 -66 l0 -58 218 2 217 3 0 60 0 60 -211 3 c-115 1 -213 -1 -217 -4z"></path><path id="pWgLBDw9R" d="M120 770 l0 -40 380 0 380 0 0 40 0 40 -380 0 -380 0 0 -40z"></path><path id="p10GNdXN75" d="M120 650 l0 -40 380 0 380 0 0 40 0 40 -380 0 -380 0 0 -40z"></path><path id="petI4tPI8" d="M120 530 l0 -40 185 0 185 0 0 40 0 40 -185 0 -185 0 0 -40z"></path><path id="p16kGGywJy" d="M550 485 c0 -78 -2 -85 -20 -85 -16 0 -20 -7 -20 -38 0 -32 7 -45 48 -85 36 -35 55 -47 78 -47 25 0 42 -11 79 -51 41 -44 55 -53 92 -57 l43 -5 0 52 c0 45 -3 53 -24 61 -44 16 -40 30 8 30 l46 0 0 155 0 155 -165 0 -165 0 0 -85z"></path><path id="ps7jial1M" d="M120 410 l0 -40 185 0 185 0 0 40 0 40 -185 0 -185 0 0 -40z"></path><path id="pdeXrl3tV" d="M120 285 l0 -45 181 0 180 0 -3 43 -3 42 -177 3 -178 2 0 -45z"></path><path id="pD6RA7HrD" d="M120 160 l0 -40 186 0 185 0 -3 38 -3 37 -182 3 -183 2 0 -40z"></path></g></g><g id="l416C2AwoFwwn4TFmwUzEh3" fill="rgb(131,199,238)" style="transform: none;"><g><path id="peKDdTeCf" d="M805 1145 l0 -190 115 -1 115 -1 -102 6 c-56 3 -107 11 -112 16 -6 6 -12 84 -14 185 l-3 175 1 -190z"></path><path id="p1DboiXIvl" d="M0 650 l0 -650 500 0 500 0 0 465 0 465 -82 0 c-109 0 -126 6 -143 46 l-14 34 -305 0 c-195 0 -306 4 -306 10 0 6 116 11 313 12 l312 3 3 48 3 47 -315 0 c-204 0 -316 4 -316 10 0 6 111 10 313 10 l314 0 0 75 0 75 -389 0 -388 0 0 -650z m848 243 c3 -10 -71 -13 -347 -13 -307 0 -351 2 -351 15 0 13 43 15 347 13 266 -2 347 -6 351 -15z m2 -123 c0 -6 -123 -10 -350 -10 -227 0 -350 4 -350 10 0 6 123 10 350 10 227 0 350 -4 350 -10z m0 -120 c0 -6 -123 -10 -350 -10 -227 0 -350 4 -350 10 0 6 123 10 350 10 227 0 350 -4 350 -10z m-390 -120 c0 -6 -58 -10 -155 -10 -97 0 -155 4 -155 10 0 6 58 10 155 10 97 0 155 -4 155 -10z m390 -115 l0 -125 -50 0 c-49 0 -50 1 -50 30 0 28 -2 30 -39 30 -34 0 -40 4 -50 30 -8 26 -15 30 -45 30 l-36 0 0 65 0 65 135 0 135 0 0 -125z m-390 -5 c0 -6 -58 -10 -155 -10 -97 0 -155 4 -155 10 0 6 58 10 155 10 97 0 155 -4 155 -10z m140 -85 c33 -34 52 -45 75 -45 23 0 42 -11 74 -44 24 -25 49 -44 55 -43 6 1 12 -8 14 -20 5 -33 -21 -20 -75 38 -36 38 -53 49 -77 49 -23 0 -42 12 -78 47 -26 26 -48 51 -48 55 0 17 18 6 60 -37z m-152 -42 c3 -10 -31 -13 -147 -13 -129 0 -151 2 -151 15 0 13 21 15 147 13 106 -2 147 -6 151 -15z m7 -123 c4 -7 -48 -10 -149 -10 -97 0 -156 4 -156 10 0 6 56 10 149 10 89 0 152 -4 156 -10z"></path><path id="p9l9JcLWJ" d="M820 415 c0 -87 -2 -95 -19 -95 -15 0 -21 8 -24 33 -4 31 -4 31 -5 -5 -2 -36 0 -38 28 -38 l30 0 0 100 c0 55 -2 100 -5 100 -3 0 -5 -43 -5 -95z"></path><path id="p15mEXGOf7" d="M610 430 c0 -5 14 -10 30 -10 17 0 30 5 30 10 0 6 -13 10 -30 10 -16 0 -30 -4 -30 -10z"></path><path id="p14wmzl4K0" d="M691 383 c-1 -19 4 -23 29 -23 17 0 30 5 30 10 0 6 -11 10 -24 10 -13 0 -27 6 -29 13 -3 6 -6 2 -6 -10z"></path></g></g><g id="l2n9fRPXAwCtNq4TwLLk1fn" fill="rgb(32,56,100)" style="transform: none;"><g><path id="p0Gby9SMs" d="M805 1598 c-3 -7 -4 -155 -3 -328 l3 -315 270 0 270 0 0 325 0 325 -268 3 c-210 2 -269 0 -272 -10z m155 -108 c0 -28 -3 -30 -35 -30 -30 0 -35 3 -35 23 0 31 7 37 42 37 24 0 28 -4 28 -30z m142 5 c6 -31 2 -35 -39 -35 -28 0 -33 4 -33 23 0 30 7 37 41 37 20 0 28 -6 31 -25z m146 -7 c3 -27 1 -28 -37 -28 -36 0 -41 3 -41 23 0 32 9 38 45 35 24 -2 31 -8 33 -30z m-288 -93 c0 -22 -4 -25 -35 -25 -31 0 -35 3 -35 25 0 22 4 25 35 25 31 0 35 -3 35 -25z m140 0 c0 -22 -4 -25 -35 -25 -31 0 -35 3 -35 25 0 22 4 25 35 25 31 0 35 -3 35 -25z m150 0 c0 -22 -4 -25 -40 -25 -36 0 -40 3 -40 25 0 23 4 25 40 25 36 0 40 -2 40 -25z m-290 -90 c0 -22 -4 -25 -35 -25 -31 0 -35 3 -35 25 0 22 4 25 35 25 31 0 35 -3 35 -25z m140 0 c0 -22 -4 -25 -35 -25 -31 0 -35 3 -35 25 0 22 4 25 35 25 31 0 35 -3 35 -25z m150 0 c0 -22 -4 -25 -40 -25 -36 0 -40 3 -40 25 0 23 4 25 40 25 36 0 40 -2 40 -25z m-290 -90 c0 -22 -4 -25 -35 -25 -31 0 -35 3 -35 25 0 22 4 25 35 25 31 0 35 -3 35 -25z m140 0 c0 -22 -4 -25 -35 -25 -31 0 -35 3 -35 25 0 22 4 25 35 25 31 0 35 -3 35 -25z m150 0 c0 -22 -4 -25 -40 -25 -36 0 -40 3 -40 25 0 23 4 25 40 25 36 0 40 -2 40 -25z m5 -130 l0 -30 -187 -3 -188 -2 0 28 c0 16 3 32 7 36 4 3 88 5 187 4 l181 -3 0 -30z"></path></g></g><g id="l4pUrmSGYWWkai2NV7Z8fHV" fill="rgb(13,13,13)" style="transform: none;"><g><path id="p11nhxaahq" d="M610 465 c0 -43 1 -45 30 -45 29 0 30 2 30 45 0 43 -1 45 -30 45 -29 0 -30 -2 -30 -45z"></path><path id="p5qGkr3wE" d="M690 435 l0 -75 30 0 30 0 0 75 0 75 -30 0 -30 0 0 -75z"></path><path id="p1734dsMTk" d="M770 410 l0 -100 30 0 30 0 0 100 0 100 -30 0 -30 0 0 -100z"></path></g></g></svg>