<svg class="img-fluid" id="outputsvg" xmlns="http://www.w3.org/2000/svg" style="transform: none; transform-origin: 50% 50%; cursor: move;" width="161" height="159" viewBox="0 0 1610 1590"><g id="l259pO4Se0bkRLOlkOQPvoj" fill="rgb(255,205,144)" style="transform: none;"><g><path id="pQ4fhFY8F" d="M332 1247 c-78 -78 -142 -149 -142 -157 1 -8 38 -45 83 -83 188 -155 252 -172 605 -161 216 7 227 8 248 30 25 24 23 53 -5 78 -13 12 -47 16 -146 18 -116 3 -130 5 -133 21 -8 40 13 47 153 47 l133 0 153 -130 c85 -71 168 -136 186 -145 38 -18 79 -19 113 -2 51 26 37 52 -148 267 -96 110 -188 211 -205 224 -58 42 -86 46 -371 46 l-272 0 -44 45 c-24 25 -49 45 -55 45 -6 0 -74 -64 -153 -143z"></path></g></g><g id="l3KihlkGYa7EQsMT64jb1z7" fill="rgb(202,49,64)" style="transform: none;"><g><path id="pGRS7wsRb" d="M1028 788 c-9 -7 -19 -29 -22 -49 -5 -31 -13 -39 -46 -52 -37 -14 -41 -14 -64 4 -34 27 -68 24 -99 -9 -32 -33 -34 -57 -8 -95 17 -27 18 -32 3 -68 -12 -32 -21 -40 -51 -45 -52 -9 -61 -21 -61 -74 0 -54 9 -65 63 -74 20 -4 37 -8 37 -10 0 -2 7 -19 15 -39 13 -32 13 -37 -5 -60 -27 -34 -25 -66 7 -99 31 -33 57 -35 96 -9 27 17 32 18 67 4 33 -13 40 -21 45 -54 8 -45 27 -59 83 -59 45 0 57 11 66 61 5 30 13 39 46 52 37 14 41 14 64 -4 33 -26 65 -24 98 8 33 31 36 65 9 99 -18 23 -18 27 -4 63 13 33 21 40 52 46 50 9 61 21 61 67 0 55 -14 75 -57 83 -32 5 -41 12 -55 45 -15 38 -15 41 3 64 27 34 24 68 -9 99 -33 32 -57 34 -95 8 -27 -18 -31 -18 -67 -2 -32 13 -40 23 -45 51 -9 49 -22 60 -69 60 -23 0 -49 -6 -58 -12z m136 -182 c165 -69 185 -294 35 -393 -58 -38 -146 -44 -212 -13 -81 38 -127 110 -127 200 0 88 45 161 123 199 49 25 131 28 181 7z"></path></g></g><g id="l5ZFPU9uXPot2sGAFpLYHnN" fill="rgb(32,56,100)" style="transform: none;"><g><path id="pEPO41fnA" d="M144 1449 c-77 -77 -140 -148 -142 -157 -3 -20 132 -172 154 -172 19 0 288 277 292 301 4 21 -131 169 -154 169 -6 0 -74 -63 -150 -141z"></path></g></g><g id="lvr3BMuA0XSH9CcSHvvvA0" fill="rgb(112,173,71)" style="transform: none;"><g><path id="pZMHmMDDJ" d="M1065 550 c-3 -11 -11 -20 -16 -20 -16 0 -59 -48 -59 -65 0 -23 22 -18 47 13 l22 27 1 -47 c0 -33 -4 -48 -13 -48 -21 0 -57 -44 -57 -69 0 -20 18 -42 63 -78 8 -7 18 -18 21 -25 5 -11 7 -11 12 0 6 14 13 21 57 53 29 22 37 59 13 59 -8 0 -17 -9 -21 -19 -3 -11 -12 -22 -20 -25 -12 -4 -15 4 -15 39 0 38 4 46 27 57 14 7 31 20 36 29 16 25 -1 69 -33 87 -16 9 -31 25 -34 34 -6 24 -23 23 -31 -2z m70 -81 c8 -23 -1 -39 -21 -39 -9 0 -14 11 -14 35 0 26 4 33 15 29 8 -3 17 -14 20 -25z m-75 -129 c0 -30 -3 -38 -15 -34 -24 10 -30 46 -9 61 24 18 24 18 24 -27z"></path></g></g></svg>