<svg class="img-fluid" id="outputsvg" xmlns="http://www.w3.org/2000/svg" style="transform: none; transform-origin: 50% 50%; cursor: move;" width="120" height="162" viewBox="0 0 1200 1620"><g id="l5WLqQ3WXedajo7XllBkdiM" fill="rgb(208,213,232)" style="transform: none;"><g style="transform: none;"><path id="p1EuyqjuE8" d="M100 930 c0 -379 3 -690 8 -689 4 0 38 38 75 85 69 85 85 96 106 70 9 -11 3 -37 -27 -116 -34 -88 -38 -107 -28 -131 l10 -29 478 0 478 0 0 672 c0 669 0 672 -20 653 -11 -11 -25 -37 -33 -58 l-13 -38 -173 135 -174 136 -344 0 -343 0 0 -690z m707 -11 c64 -31 129 -98 161 -167 22 -48 27 -71 27 -142 0 -104 -29 -174 -100 -245 -71 -71 -141 -100 -245 -100 -71 0 -94 5 -141 27 -116 53 -193 160 -205 284 -19 180 119 350 301 373 68 9 146 -3 202 -30z"></path></g></g><g id="l6hzriPr6bz0QRMX3AbutaE" fill="rgb(247,202,84)" style="transform: none;"><g style="transform: none;"><path id="pyzV7ChHh" d="M590 916 c-73 -16 -113 -38 -166 -92 -113 -117 -112 -312 3 -428 74 -76 112 -91 223 -91 109 0 152 17 220 85 57 57 82 113 88 195 5 86 -8 139 -51 201 -72 104 -197 155 -317 130z"></path></g></g><g id="l1Cgw6yZZywZxLJD48OUHXD" fill="rgb(7,7,7)" style="transform: none;"><g style="transform: none;"><path id="p1EMaAVrqa" d="M200 1305 c0 -13 34 -15 245 -15 211 0 245 2 245 15 0 13 -34 15 -245 15 -211 0 -245 -2 -245 -15z"></path><path id="p1HIKNLa2W" d="M200 1205 c0 -13 57 -15 450 -15 393 0 450 2 450 15 0 13 -57 15 -450 15 -393 0 -450 -2 -450 -15z"></path><path id="pPIjCrhhx" d="M200 1105 c0 -13 57 -15 450 -15 393 0 450 2 450 15 0 13 -57 15 -450 15 -393 0 -450 -2 -450 -15z"></path><path id="pN7JenbZi" d="M627 874 c-4 -4 -7 -18 -7 -30 0 -18 -11 -28 -45 -43 -35 -15 -49 -29 -61 -57 -8 -20 -13 -43 -10 -50 9 -23 35 -16 42 11 6 24 47 65 65 65 5 0 9 -33 9 -73 l0 -73 -35 -12 c-18 -7 -46 -27 -61 -44 -21 -26 -25 -39 -21 -71 6 -46 37 -82 82 -97 25 -8 34 -18 39 -41 7 -39 40 -37 44 3 2 20 11 30 37 38 42 14 87 65 83 94 -4 29 -30 27 -45 -4 -14 -28 -40 -50 -60 -50 -10 0 -13 20 -13 74 l0 73 45 18 c48 18 75 53 75 97 0 38 -36 85 -79 104 -30 13 -41 24 -43 43 -3 25 -27 39 -41 25z m76 -115 c29 -16 37 -28 37 -61 0 -17 -9 -33 -22 -42 -41 -29 -48 -21 -48 49 0 36 3 65 6 65 3 0 15 -5 27 -11z m-88 -317 c-3 -4 -18 0 -33 9 -48 26 -40 99 13 119 19 7 20 3 23 -57 2 -36 0 -68 -3 -71z"></path><path id="p1ALUUjr9F" d="M185 281 c-35 -44 -65 -71 -77 -71 -28 0 -76 -27 -88 -49 -35 -66 14 -151 87 -151 75 0 115 57 94 133 -11 39 -10 49 19 121 17 43 29 81 26 83 -2 2 -30 -27 -61 -66z"></path></g></g><g id="lrHqVg4ND0ue3Ruq0zyPBY" fill="rgb(177,183,196)" style="transform: none;"><g style="transform: none;"><path id="pZdKeH4DN" d="M894 1578 c16 -12 72 -57 125 -100 l96 -77 18 34 c10 20 26 40 36 47 16 10 -5 19 -137 65 -85 29 -157 53 -161 53 -3 0 7 -10 23 -22z"></path></g></g></svg>