<svg xmlns="http://www.w3.org/2000/svg" width="512" height="512" viewBox="0 0 512 512" version="1.1"><path d="M 114.007 142.577 C 98.661 149.301, 97.287 170.046, 111.575 179.298 L 114.975 181.500 114.973 225 C 114.970 270.423, 114.596 275.277, 110.310 285.500 C 108.721 289.288, 101.284 302.411, 69.789 357 C 62.332 369.925, 49.480 392.200, 41.229 406.500 C 15.706 450.735, 16.299 449.606, 15.066 456.266 C 13.664 463.839, 14.847 471.244, 18.505 477.787 C 19.877 480.243, 21 482.420, 21 482.626 C 21 482.832, 17.500 483, 13.223 483 C 3.520 483, 1 484.423, 1 489.902 C 1 492.302, 1.670 494.297, 2.829 495.345 C 4.517 496.873, 19.385 497, 196.394 497 C 326.651 497, 388.752 496.668, 390.066 495.965 C 392.857 494.471, 392.857 485.529, 390.066 484.035 C 388.920 483.422, 380.107 483, 368.458 483 L 348.785 483 354.324 477.017 C 370.587 459.450, 379.117 437.599, 379.117 413.500 C 379.117 380.908, 363.551 352.699, 335.500 334.454 C 326.610 328.672, 323.647 325.856, 322.067 321.685 C 321.379 319.871, 321 305.398, 321 281.002 C 321 244.623, 321.075 243.111, 322.908 242.529 C 326.240 241.472, 332.829 233.430, 333.561 229.526 C 335.177 220.910, 331.525 212.354, 324.317 207.873 L 320.500 205.500 286.415 205.500 L 252.329 205.500 248.160 208.389 C 237.059 216.082, 236.090 230.428, 246.061 239.436 C 248.231 241.396, 250.454 243, 251.003 243 C 251.648 243, 252 256.335, 252 280.788 C 252 318.004, 251.966 318.643, 249.750 322.980 C 248.512 325.402, 245.757 328.760, 243.626 330.442 C 240.362 333.019, 239.607 333.264, 238.829 332 C 228.955 315.961, 212.787 286.618, 210.935 281.378 C 208.508 274.512, 208.504 274.419, 208.280 228 L 208.056 181.500 212.278 178.459 C 224.357 169.760, 224.301 153.067, 212.165 144.544 L 207.830 141.500 162.665 141.274 C 123.964 141.079, 117 141.266, 114.007 142.577 M 120.500 154.698 C 114.607 156.196, 112.955 163.247, 117.635 166.927 C 120.204 168.948, 121.303 169, 161.500 169 C 201.697 169, 202.796 168.948, 205.365 166.927 C 208.710 164.296, 208.968 159.187, 205.896 156.405 C 203.906 154.603, 201.593 154.492, 163.146 154.345 C 140.791 154.260, 121.600 154.419, 120.500 154.698 M 128.980 223.250 C 128.969 245.938, 128.514 267.585, 127.969 271.356 C 125.759 286.643, 124.410 289.332, 83.656 359.720 L 73.107 377.940 75.994 379.996 L 78.882 382.052 82.795 375.276 C 84.947 371.549, 88.608 365.212, 90.931 361.193 C 95.624 353.074, 98.501 350.996, 102.515 352.825 C 103.898 353.455, 105.514 355.035, 106.107 356.336 C 107.352 359.068, 105.760 362.644, 95.939 379.185 L 90.026 389.142 97.364 392.533 C 106.820 396.901, 111.559 397.946, 122.068 397.976 C 137.177 398.019, 147.700 393.395, 172.945 375.624 C 199.534 356.906, 211.196 350.766, 225.982 347.700 L 231.772 346.500 219.283 325 C 199.883 291.601, 196.994 285.227, 195.037 271.500 C 194.489 267.650, 194.031 245.938, 194.020 223.250 L 194 182 161.500 182 L 129 182 128.980 223.250 M 256.815 219.043 C 254.071 219.691, 251.814 223.706, 252.623 226.500 C 253.887 230.866, 254.899 231, 286.500 231 C 309.055 231, 317.029 230.686, 318.254 229.750 C 320.881 227.744, 321.380 223.688, 319.312 221.153 C 317.523 218.962, 317.128 218.931, 288.307 218.717 C 272.252 218.598, 258.080 218.744, 256.815 219.043 M 147.922 224.274 C 142.206 228.125, 139.757 232.685, 140.230 238.592 C 140.750 245.077, 143.934 249.641, 149.725 252.203 C 155.717 254.853, 160.981 253.915, 166.107 249.285 C 177.112 239.342, 170.210 222, 155.247 222 C 152.793 222, 150.017 222.862, 147.922 224.274 M 154 238 C 154 239.333, 154.667 240, 156 240 C 157.333 240, 158 239.333, 158 238 C 158 236.667, 157.333 236, 156 236 C 154.667 236, 154 236.667, 154 238 M 264.999 283.750 L 264.998 322.500 262.150 328.500 C 259.593 333.886, 255.266 338.695, 248.204 344 C 246.261 345.460, 246.453 345.921, 255.353 361.130 C 260.384 369.726, 268.775 384.216, 274 393.331 L 283.500 409.902 289 411.131 C 292.025 411.807, 299.450 412.328, 305.500 412.289 C 317.239 412.212, 320.956 411.333, 342.087 403.637 C 347.360 401.717, 354.447 399.573, 357.837 398.873 C 361.227 398.173, 364 397.097, 364 396.481 C 364 393.954, 360.579 384.112, 357.751 378.500 C 350.495 364.107, 339.889 352.528, 327.140 345.082 C 318.961 340.305, 312.265 333.205, 309.524 326.403 C 307.699 321.875, 307.523 318.578, 307.220 283.250 L 306.891 245 285.945 245 L 265 245 264.999 283.750 M 281.830 258.970 C 276.060 262.108, 273.500 266.474, 273.500 273.177 C 273.500 277.370, 274.047 279.591, 275.592 281.677 C 282.942 291.596, 296.680 291.522, 302.534 281.532 C 307.081 273.774, 305.228 265.185, 297.824 259.702 C 293.940 256.825, 286.408 256.480, 281.830 258.970 M 287 272.871 C 287 275.310, 288.259 276.222, 290.459 275.377 C 292.772 274.490, 291.922 271.563, 289.240 271.180 C 287.557 270.940, 287 271.361, 287 272.871 M 159.871 275.949 C 150.861 280.851, 146.887 291.006, 150.548 299.768 C 156.479 313.964, 175.029 316.224, 183.638 303.800 C 186.087 300.267, 186.500 298.711, 186.500 293.012 C 186.500 285.428, 184.271 281.095, 178.247 276.967 C 173.502 273.716, 164.856 273.237, 159.871 275.949 M 164.200 289.200 C 162.100 291.300, 162.774 295.806, 165.451 297.560 C 168.521 299.572, 171.344 298.735, 172.883 295.358 C 173.849 293.238, 173.780 292.313, 172.511 290.377 C 170.805 287.772, 166.270 287.130, 164.200 289.200 M 135.519 324.538 C 126.869 327.834, 121 336.366, 121 345.644 C 121 358.661, 130.682 368.310, 143.639 368.207 C 159.784 368.079, 170.689 350.157, 163.400 335.733 C 158.321 325.683, 145.757 320.638, 135.519 324.538 M 267.966 332.250 C 253.032 339.788, 258.374 362.385, 275.089 362.385 C 292.022 362.385, 297.034 338.915, 281.599 331.905 C 276.211 329.458, 273.354 329.531, 267.966 332.250 M 136.589 340.077 C 133.472 343.781, 133.276 347.810, 136.043 351.328 C 140.392 356.856, 150.073 355.266, 151.811 348.737 C 153.560 342.168, 149.622 337, 142.866 337 C 139.975 337, 138.618 337.665, 136.589 340.077 M 272.754 345.250 C 272.010 347.275, 273.032 349, 274.976 349 C 276.876 349, 278.405 346.465, 277.444 344.910 C 276.613 343.564, 273.285 343.806, 272.754 345.250 M 314.500 351.171 C 311.796 352.737, 311.033 354.029, 311.015 357.076 C 311 359.691, 313.210 362.207, 318.304 365.374 C 319.846 366.332, 323.563 369.340, 326.564 372.058 C 332.569 377.496, 335.751 378.249, 339 375 C 342.145 371.855, 341.496 368.494, 336.751 363.346 C 331.986 358.176, 322.500 351.388, 318.882 350.558 C 317.572 350.258, 315.600 350.534, 314.500 351.171 M 232.575 360.066 C 220.730 362.034, 207.338 368.242, 191.500 379.106 C 156.138 403.363, 150.670 406.419, 136.008 410.121 C 121.582 413.763, 104.905 411.513, 89.779 403.885 C 86.632 402.298, 83.846 401, 83.589 401 C 83.331 401, 79.644 407.114, 75.396 414.587 C 66.999 429.355, 64.758 431.428, 60.013 428.810 C 58.645 428.056, 57.104 426.238, 56.589 424.772 C 55.767 422.436, 56.666 420.345, 63.842 407.909 L 72.034 393.712 69.767 392.106 C 68.520 391.223, 67.128 390.500, 66.673 390.500 C 65.960 390.500, 58.874 402.517, 33.729 446.363 C 27.207 457.735, 26.459 463.331, 30.388 471.360 C 32.111 474.883, 34.457 477.738, 37.175 479.621 L 41.329 482.500 159.414 482.796 C 237.751 482.993, 278.690 482.748, 281.035 482.070 C 288.630 479.875, 295 470.592, 295 461.719 C 295 456.924, 294.279 455.102, 288.159 444.430 C 281.448 432.727, 261.544 398.162, 246.766 372.549 C 242.657 365.426, 238.890 359.519, 238.397 359.423 C 237.904 359.327, 235.284 359.616, 232.575 360.066 M 296.500 372.167 C 290.487 375.493, 286 382.534, 286 388.644 C 286 402.676, 302.151 411.451, 313.800 403.749 C 325.487 396.021, 324.400 378.994, 311.800 372.411 C 308.605 370.742, 299.343 370.594, 296.500 372.167 M 339.174 379.314 C 336.492 382.170, 336.473 384.241, 339.077 389.982 C 341.821 396.031, 343.786 398, 347.082 398 C 349.804 398, 354.001 394.126, 353.999 391.615 C 353.998 389.228, 348.136 378.266, 346.532 377.651 C 343.491 376.484, 341.387 376.959, 339.174 379.314 M 300.496 386.004 C 297.823 388.958, 299.815 393, 303.943 393 C 308.393 393, 310.457 388.600, 307.429 385.571 C 305.291 383.434, 302.674 383.597, 300.496 386.004 M 358.464 412.491 C 355.694 413.238, 348.515 415.695, 342.511 417.950 C 326.051 424.133, 320.737 425.303, 306.280 425.928 L 293.060 426.500 299.501 437.556 C 310.782 456.920, 311.250 464.626, 302.218 482.250 C 302.006 482.663, 307.194 483, 313.745 483 C 325.472 483, 325.732 482.950, 330.486 479.802 C 347.467 468.554, 360.169 449.458, 364.416 428.792 C 366.361 419.329, 366.518 410.973, 364.750 411.066 C 364.063 411.102, 361.234 411.743, 358.464 412.491 M 47.250 437.752 C 46.288 438.716, 44.170 442.046, 42.545 445.153 C 39.991 450.036, 39.748 451.152, 40.761 453.374 C 42.033 456.167, 45.686 457.564, 49.250 456.622 C 51.903 455.921, 58 446.024, 58 442.420 C 58 437.105, 50.953 434.045, 47.250 437.752" stroke="none" fill="#ffffff" fill-rule="evenodd"/><path d="M 351.100 13.506 C 345.783 15.163, 338.834 21.694, 336.023 27.675 C 330.271 39.912, 336.935 56.251, 349.927 61.767 C 354.399 63.665, 363.281 63.816, 368.381 62.080 C 373.328 60.396, 379.564 54.776, 382.183 49.641 C 383.305 47.443, 384.454 43.087, 384.737 39.961 C 386.437 21.210, 369.390 7.803, 351.100 13.506 M 249.800 72.291 C 243.918 73.940, 236.936 79.865, 233.800 85.868 C 228.722 95.589, 230.843 107.779, 238.991 115.704 C 244.339 120.906, 248.564 122.500, 257 122.500 C 263.368 122.500, 265.201 122.088, 269.145 119.770 C 278.113 114.498, 282.200 107.332, 282.195 96.887 C 282.193 89.630, 280.858 86.186, 275.833 80.462 C 272.385 76.535, 268.577 74.201, 262.500 72.289 C 257.885 70.837, 254.981 70.837, 249.800 72.291 M 405.500 101.881 C 398.041 103.831, 390.532 110.397, 387.523 117.600 C 385.597 122.209, 385.558 132.007, 387.449 136.532 C 391 145.031, 399.208 151.381, 408.242 152.620 C 418.066 153.966, 429.374 147.868, 434.299 138.568 C 437.168 133.152, 437.337 121.166, 434.618 116 C 432.079 111.175, 427.207 106.189, 422.824 103.930 C 418.612 101.759, 409.906 100.729, 405.500 101.881 M 351.634 192.031 C 338.561 195.947, 330.345 213.008, 335.542 225.445 C 337.449 230.010, 344.163 237.417, 348.361 239.587 C 353.524 242.257, 363.852 242.603, 369.080 240.280 C 379.465 235.666, 384.973 227.335, 384.990 216.217 C 385.012 202.022, 373.987 190.945, 360 191.108 C 356.975 191.143, 353.210 191.558, 351.634 192.031 M 455.994 191.934 C 441.991 196.194, 434.290 210.223, 438.346 224.083 C 441.596 235.190, 450.983 242.018, 462.946 241.978 C 470.642 241.952, 475.998 239.848, 480.934 234.912 C 491.399 224.447, 490.869 207.035, 479.795 197.557 C 473.262 191.964, 463.487 189.655, 455.994 191.934" stroke="none" fill="#f4bc04" fill-rule="evenodd"/></svg>