<svg class="img-fluid" id="outputsvg" xmlns="http://www.w3.org/2000/svg" style="transform: none; transform-origin: 50% 50%; cursor: move; max-height: 340px;" width="314" height="356" viewBox="0 0 3140 3560"><g id="l2Dlv0a6WPhiULarlNJvI1X" fill="rgb(0,0,0)" style="transform: none;"><g></g></g><g id="lQTppFPJcR5xzl2KAQ9YGt" fill="rgb(8,8,8)" style="transform: none;"><g></g></g><g id="l1xO3rGyrPnMRhgLtntWQE7" fill="rgb(16,16,16)" style="transform: none;"><g></g></g><g id="l6AAPBGDoDcWZ3SM4Fp2FZV" fill="rgb(25,25,25)" style="transform: none;"><g></g></g><g id="l6qIfNtpADhMro4MVkR99fa" fill="rgb(41,41,41)" style="transform: none;"><g></g></g><g id="lYi6d1eKRas3Qv4yQRKSig" fill="rgb(49,49,49)" style="transform: none;"><g></g></g><g id="l7kOZ9Dz9eWSWNdjwc4bOrn" fill="rgb(58,58,58)" style="transform: none;"><g></g></g><g id="l5Ar5sC12t2dGvSDFD0nvf2" fill="rgb(66,66,66)" style="transform: none;"><g><path id="pro1AJp44" d="M401 3544 c-99 -27 -162 -81 -208 -179 l-28 -60 -3 -472 -3 -473 320 0 321 0 0 445 c0 284 -4 463 -11 497 -37 176 -218 289 -388 242z m147 -260 c57 -23 101 -72 118 -130 22 -75 6 -123 -82 -255 -40 -60 -79 -127 -85 -149 -7 -22 -15 -40 -19 -40 -4 0 -12 17 -18 39 -7 21 -45 88 -86 149 -85 127 -104 183 -84 259 27 108 153 171 256 127z"></path><path id="pfLEchmyC" d="M160 1865 l0 -445 321 0 321 0 -5 38 c-3 20 -13 62 -22 92 -18 61 -13 155 11 225 10 30 14 103 14 288 l0 247 -320 0 -320 0 0 -445z"></path><path id="pkXvuw4IB" d="M897 1779 c-50 -29 -62 -146 -26 -246 18 -47 39 -75 108 -143 98 -97 183 -147 344 -200 148 -48 190 -98 133 -155 -34 -34 -79 -55 -286 -131 -179 -65 -188 -68 -280 -68 -84 -1 -102 2 -154 27 -73 34 -135 84 -177 142 l-32 45 -220 0 c-171 0 -218 -3 -214 -12 123 -316 188 -407 384 -535 101 -66 180 -103 331 -153 113 -38 115 -39 201 -123 137 -135 246 -195 389 -217 63 -10 88 -7 437 59 204 38 454 84 558 102 l187 33 0 446 0 445 -148 96 c-203 133 -531 334 -628 386 -115 61 -204 81 -408 92 -187 9 -238 22 -367 87 -71 35 -101 41 -132 23z"></path><path id="pWoJ196WO" d="M2630 690 l0 -670 255 0 255 0 0 670 0 670 -255 0 -255 0 0 -670z m330 -288 c32 -39 27 -95 -11 -126 -17 -14 -43 -26 -58 -26 -38 0 -78 33 -86 71 -20 92 98 154 155 81z"></path><path id="pIJsSeZ9H" d="M33 1306 c-24 -21 -28 -32 -28 -76 0 -42 4 -55 24 -71 22 -18 45 -19 456 -19 l434 0 20 26 c21 27 26 68 15 112 -14 50 -31 52 -478 52 l-415 0 -28 -24z"></path></g></g><g id="l3QiMvDniEu0Ukte3XTRCCZ" fill="rgb(74,74,74)" style="transform: none;"><g></g></g><g id="l7VbuYLRvc2nzDejmEIV2fw" fill="rgb(82,82,82)" style="transform: none;"><g></g></g><g id="l1W4IAap0Jo19c7gwjAgM9M" fill="rgb(90,90,90)" style="transform: none;"><g></g></g><g id="l4DEQtSGdwdcANvYHuJxI5l" fill="rgb(99,99,99)" style="transform: none;"><g></g></g><g id="l5L8ECBClaetYgprxSTxVd8" fill="rgb(107,107,107)" style="transform: none;"><g></g></g><g id="l4Ky6UtyJUJqUwQ2NCaIh65" fill="rgb(115,115,115)" style="transform: none;"><g></g></g><g id="l3mraRNDMOrQ6Lt9uzsXcC5" fill="rgb(123,123,123)" style="transform: none;"><g></g></g><g id="l1OJMI1QbGQSoIVWqlqzuBh" fill="rgb(132,132,132)" style="transform: none;"><g></g></g><g id="l7iQQNjL72LNQ6ZCCGaO7r6" fill="rgb(140,140,140)" style="transform: none;"><g></g></g><g id="l2lQ32M4FWVoADG3JalAjWm" fill="rgb(148,148,148)" style="transform: none;"><g></g></g><g id="l1CEBVi0w1DaZVZ4JaYM8I0" fill="rgb(156,156,156)" style="transform: none;"><g></g></g><g id="l4m4qOYqQ6rQgVwpH1lOOLP" fill="rgb(165,165,165)" style="transform: none;"><g></g></g><g id="l3emDSAbuYG9LMRJRO1J0AN" fill="rgb(173,173,173)" style="transform: none;"><g></g></g><g id="l5oTAHaZytgb97qy837wP66" fill="rgb(181,181,181)" style="transform: none;"><g></g></g><g id="l2ofglfGlAz3i290AUze3J2" fill="rgb(189,189,189)" style="transform: none;"><g></g></g><g id="l3pCndeot89TPJ4qa1Y4d7d" fill="rgb(206,206,206)" style="transform: none;"><g></g></g><g id="l1tcEJiGnwTCILZUOslAaBH" fill="rgb(214,214,214)" style="transform: none;"><g></g></g><g id="l5qI1h7cTIR2d9G3i8WMTFA" fill="rgb(222,222,222)" style="transform: none;"><g></g></g><g id="lXIdwTJOLmMrglWSQyJKea" fill="rgb(230,230,230)" style="transform: none;"><g></g></g><g id="lDXgnynv1byyiGKrRQ50fA" fill="rgb(239,239,239)" style="transform: none;"><g></g></g><g id="l5izb5l0mtgcKRPy4RPIzLB" fill="rgb(247,247,247)" style="transform: none;"><g></g></g><g id="l2NG3v2KEG2V4afJg9RzMim" fill="rgb(255,255,255)" style="transform: none;"><g></g></g></svg>