<svg class="img-fluid" id="outputsvg" xmlns="http://www.w3.org/2000/svg" style="transform: none; transform-origin: 50% 50%; cursor: move; max-height: 340.84px;" width="318" height="356" viewBox="0 0 3180 3560"><g id="l36tR0du3dLDM87sxqhnbx5" fill="rgb(94,174,136)" style="transform: none;"><g style="transform: none;"><path id="pfS2nXwjZ" d="M13 3443 c12 -222 81 -522 151 -661 49 -97 175 -211 351 -317 146 -88 623 -317 609 -292 -4 7 2 3 14 -7 22 -19 22 -19 22 4 0 16 -20 43 -57 79 -60 58 -120 124 -163 181 -14 18 -36 47 -50 64 -14 17 -34 47 -44 66 -11 19 -23 37 -26 40 -4 3 -19 34 -33 70 -19 47 -32 67 -49 71 -16 5 -10 7 22 8 25 1 77 3 115 6 39 2 62 2 52 -1 -24 -8 -11 -24 19 -24 21 0 24 4 24 37 0 21 -7 72 -17 115 -15 69 -18 76 -35 67 -55 -30 16 22 328 241 l346 242 350 -233 c193 -129 354 -236 358 -239 5 -3 0 -47 -11 -99 -10 -52 -18 -96 -16 -97 1 -2 51 -6 110 -10 77 -5 107 -11 107 -20 0 -24 -68 -143 -125 -219 -68 -90 -128 -159 -239 -273 -89 -91 -91 -91 74 -17 317 142 656 347 753 455 102 114 184 427 220 843 l3 37 -1585 0 -1584 0 6 -117z"></path><path id="p13MJurIhG" d="M1560 3395 c-11 -13 -8 -15 14 -15 16 0 26 5 26 15 0 8 -6 15 -14 15 -7 0 -19 -7 -26 -15z"></path><path id="pwGcga7ui" d="M1485 3343 c-38 -27 -39 -28 -15 -31 13 -2 26 1 28 7 2 6 10 11 18 11 8 0 14 9 14 20 0 11 -1 20 -3 20 -1 0 -20 -12 -42 -27z"></path><path id="ppwwQMrtr" d="M1385 3273 c-38 -27 -39 -28 -15 -31 13 -2 26 1 28 7 2 6 10 11 18 11 8 0 14 9 14 20 0 11 -1 20 -3 20 -1 0 -20 -12 -42 -27z"></path><path id="p19dbAZaj8" d="M1235 3168 c-78 -54 -87 -63 -65 -66 13 -2 26 1 28 7 2 6 10 11 18 11 8 0 14 5 14 10 0 6 7 10 15 10 8 0 15 7 15 15 0 8 9 15 20 15 11 0 20 5 20 10 0 6 7 10 15 10 8 0 15 9 15 20 0 11 -1 20 -3 20 -1 0 -43 -28 -92 -62z"></path><path id="p15jrJ8iHl" d="M1085 3063 c-38 -27 -39 -28 -15 -31 13 -2 26 1 28 7 2 6 10 11 18 11 8 0 14 9 14 20 0 11 -1 20 -3 20 -1 0 -20 -12 -42 -27z"></path><path id="pbtEssMu" d="M985 2993 c-38 -27 -39 -28 -15 -31 13 -2 26 1 28 7 2 6 10 11 18 11 8 0 14 9 14 20 0 11 -1 20 -3 20 -1 0 -20 -12 -42 -27z"></path><path id="pCDYRbSwk" d="M2340 2534 c0 -27 14 -25 30 7 9 16 7 19 -10 19 -15 0 -20 -7 -20 -26z"></path></g></g><g id="l40afHLfVevxOb4zpxf14SD" fill="rgb(64,64,64)" style="transform: none;"><g style="transform: none;"><path id="pElt0zly8" d="M1269 2086 c11 -13 -11 -14 -156 -14 -250 1 -376 -34 -464 -130 -77 -83 -110 -211 -89 -344 11 -71 22 -102 93 -263 44 -99 75 -220 122 -485 61 -341 120 -484 254 -620 177 -179 374 -249 602 -215 306 45 525 153 637 313 79 114 112 237 157 600 32 263 45 314 111 454 95 200 105 353 31 491 -75 141 -222 197 -534 200 -112 2 -139 5 -131 15 18 21 -37 15 -56 -7 -25 -28 -39 -88 -31 -139 6 -38 16 -53 72 -106 206 -195 328 -469 308 -693 l-7 -71 -71 -7 c-173 -16 -315 -53 -441 -117 -101 -51 -152 -85 -230 -159 -61 -57 -63 -58 -73 -36 -35 76 -290 364 -373 420 l-24 17 23 102 c47 213 136 389 262 520 86 90 89 95 89 163 0 75 -26 125 -66 125 -22 0 -24 -3 -15 -14z"></path></g></g><g id="l1uf1sa45MmQoC0p4mbNXeO" fill="rgb(222,182,171)" style="transform: none;"><g style="transform: none;"><path id="p8wqeUuw1" d="M1556 3391 c-10 -11 -110 -289 -222 -617 -157 -462 -201 -601 -192 -611 6 -8 36 -26 66 -40 88 -41 138 -143 98 -198 -8 -11 -41 -48 -74 -82 -78 -81 -146 -184 -189 -286 -35 -81 -85 -260 -97 -348 -7 -45 -6 -46 32 -73 88 -61 291 -292 371 -422 l31 -51 78 76 c89 89 137 123 248 179 126 64 268 101 441 117 l71 7 8 75 c24 266 -89 542 -309 749 -36 34 -67 72 -69 85 -10 63 37 134 115 172 30 14 59 32 65 40 9 10 -2 52 -47 183 -32 93 -125 365 -206 604 -82 239 -155 440 -164 447 -23 17 -35 16 -55 -6z"></path></g></g><g id="l7ZLYMSljyLVuNcDwfNBOjo" fill="rgb(255,255,255)" style="transform: none;"><g style="transform: none;"><path id="p19RjyigGm" d="M1300 3214 c-151 -107 -302 -213 -336 -235 l-61 -41 20 -89 c11 -49 17 -92 13 -96 -4 -4 -54 -9 -111 -11 l-104 -4 23 -63 c31 -85 97 -190 195 -306 90 -109 211 -224 222 -212 3 5 98 276 209 603 111 327 206 601 210 608 7 15 21 -24 265 -743 86 -253 160 -464 164 -468 16 -16 315 315 394 435 37 56 67 118 67 137 0 5 -47 11 -104 13 -57 1 -107 6 -110 9 -3 3 3 47 14 99 12 51 19 94 18 95 -26 21 -700 465 -705 464 -5 0 -132 -88 -283 -195z"></path></g></g></svg>