<svg class="img-fluid" id="outputsvg" xmlns="http://www.w3.org/2000/svg" style="transform: matrix(1, 0, 0, 1, 0, 0); transform-origin: 50% 50%; cursor: move; transition: none 0s ease 0s;" width="357" height="330" viewBox="0 0 3570 3300"><g id="l6Amw985Uf35mTu3Z1PrEMt" fill="rgb(10,149,199)" style="transform: none;"><g style="transform: none;"><path id="paiQSNrZ1" d="M52 3290 c-51 -21 -52 -34 -52 -660 l0 -580 900 0 900 0 0 584 c0 363 -4 595 -10 611 -21 56 -6 55 -897 54 -474 0 -828 -4 -841 -9z m898 -400 l0 -170 165 0 165 0 0 -40 0 -40 -165 0 -165 0 0 -170 0 -170 -39 0 c-26 0 -41 5 -45 16 -3 9 -6 85 -6 170 l0 154 -165 0 -165 0 0 40 0 40 168 2 167 3 -4 168 -3 167 46 0 46 0 0 -170z"></path><path id="pHThqe5SM" d="M740 477 c0 -43 -5 -78 -12 -85 -9 -9 -3 -12 28 -12 23 0 67 -9 99 -20 63 -22 101 -25 110 -11 3 5 -3 12 -12 14 -10 3 98 5 240 6 l257 1 0 90 0 90 -355 0 -355 0 0 -73z"></path></g></g><g id="l5PkP6RxTwVDa8u0lZ9Ru3B" fill="rgb(244,188,125)" style="transform: none;"><g style="transform: none;"><path id="p1FPDKPx20" d="M1990 1499 c-41 -6 -162 -33 -270 -61 -273 -71 -305 -78 -395 -78 -98 0 -188 19 -325 67 -120 42 -150 41 -170 -6 -17 -41 -7 -63 54 -118 71 -64 148 -109 248 -144 46 -16 75 -29 66 -29 -31 0 -20 -27 13 -34 48 -9 169 -7 169 3 0 5 -6 12 -12 15 -24 11 167 -6 242 -21 95 -19 138 -41 188 -98 105 -119 102 -323 -7 -468 -20 -27 -87 -91 -150 -143 l-113 -95 -67 8 c-65 8 -160 9 -276 4 -58 -3 -143 20 -240 65 -52 24 -147 54 -170 54 -43 0 -72 -57 -51 -98 29 -55 180 -180 301 -247 55 -31 73 -36 181 -45 275 -23 434 -29 482 -20 60 11 144 50 463 218 261 136 352 195 568 365 75 59 140 103 147 100 12 -4 14 57 14 373 l0 379 -128 1 c-96 1 -159 8 -257 29 -147 30 -374 41 -505 24z"></path></g></g><g id="l2R8fvEYpeY1iZRDCM8zJsP" fill="rgb(0,169,157)" style="transform: none;"><g style="transform: none;"><path id="p3youNchl" d="M3200 1556 l-345 -113 0 -373 0 -373 340 -114 c187 -62 348 -116 358 -119 16 -5 17 28 17 600 0 479 -3 606 -12 605 -7 -1 -168 -52 -358 -113z"></path></g></g><g id="l52VqtRQReRwBOchxObKC7V" fill="rgb(167,43,36)" style="transform: none;"><g style="transform: none;"><path id="pIJTug6nb" d="M831 2923 l1 -168 -166 -3 -166 -2 0 -70 0 -70 165 0 165 0 0 -154 c0 -85 3 -161 6 -170 5 -12 21 -16 75 -16 l69 0 0 170 0 170 165 0 165 0 0 70 0 70 -165 0 -165 0 0 170 0 170 -75 0 -76 0 2 -167z"></path><path id="p18wmWfhdN" d="M832 1111 c-57 -36 -62 -63 -62 -321 l0 -230 330 0 330 0 -1 228 c0 246 -6 282 -51 315 -25 18 -46 20 -270 24 -233 4 -244 4 -276 -16z"></path></g></g><g id="l3bO2R4qsISq7kozWyGeVVH" fill="rgb(57,193,229)" style="transform: none;"><g style="transform: none;"><path id="poq5sANtz" d="M22 1968 c8 -13 58 -96 112 -186 l97 -162 672 2 671 3 93 155 c52 85 101 167 109 183 l15 27 -892 0 -891 0 14 -22z"></path></g></g></svg>