<svg class="img-fluid" id="outputsvg" xmlns="http://www.w3.org/2000/svg" style="transform: none; transform-origin: 50% 50%; cursor: move; max-height: 340.84px;" width="341" height="352" viewBox="0 0 3410 3520"><g id="l2F3Hr0WtPLk4OgIO5H35fM" fill="rgb(68,114,196)" style="transform: none;"><g><path id="p158umzkd7" d="M24 3506 c-19 -14 -19 -44 -22 -1613 -1 -879 0 -1607 2 -1619 10 -41 40 -44 404 -44 l347 -1 20 -32 c30 -47 77 -67 161 -67 70 0 71 0 103 -40 56 -70 143 -100 228 -79 37 10 60 25 100 66 l52 53 68 0 c81 0 129 20 158 67 l20 32 355 1 c195 0 360 4 366 8 33 21 34 50 34 711 0 774 8 735 -105 539 -81 -139 -115 -171 -158 -144 -13 9 -84 121 -158 251 -93 163 -139 234 -151 235 -13 0 -18 8 -18 29 0 39 -278 522 -308 536 -15 7 -22 19 -23 40 0 20 -49 114 -143 275 -110 190 -147 246 -164 248 -18 3 -22 10 -22 38 0 26 -27 81 -105 217 -58 100 -105 189 -105 197 0 8 16 32 35 52 19 20 35 41 35 47 0 8 -150 11 -493 11 -410 0 -496 -2 -513 -14z"></path></g></g><g id="l4uClJXoFLs78kNccSrLFCe" fill="rgb(192,0,0)" style="transform: none;"><g><path id="pLTXKQUFK" d="M962 3477 c-16 -17 -22 -36 -22 -72 0 -45 22 -85 342 -639 187 -325 362 -627 388 -671 76 -130 160 -275 300 -520 73 -126 141 -238 152 -247 25 -22 105 -24 134 -3 12 8 53 71 93 139 61 108 71 133 71 174 0 46 27 95 476 873 569 985 514 886 505 913 -17 45 -30 46 -522 46 -406 0 -468 2 -473 15 -5 13 -93 15 -714 15 l-709 0 -21 -23z m1272 -358 l27 -31 -24 -32 c-32 -41 -59 -44 -86 -10 -26 33 -26 45 0 78 27 34 51 33 83 -5z m26 -282 c19 -30 20 -52 20 -352 0 -300 -1 -322 -20 -352 -10 -18 -32 -39 -48 -47 -26 -14 -31 -13 -61 5 -58 35 -61 55 -61 394 0 339 3 359 61 394 30 18 35 19 61 5 16 -8 38 -29 48 -47z"></path></g></g><g id="l3Pp6BYey4UulgD9tLzC9fH" fill="rgb(255,255,255)" style="transform: none;"><g><path id="pql3EpHfa" d="M994 3510 c-32 -13 -74 -69 -74 -99 0 -17 43 -102 110 -219 61 -105 110 -196 110 -202 0 -7 -138 -10 -410 -10 l-410 0 0 -25 0 -25 432 -2 432 -3 142 -245 c79 -135 143 -251 143 -257 1 -10 -120 -13 -574 -13 -568 0 -575 0 -575 -20 0 -20 7 -20 590 -20 l590 0 24 -37 c30 -46 276 -473 276 -479 0 -2 -333 -4 -740 -4 l-740 0 0 -25 0 -25 758 0 757 -1 134 -234 c74 -130 145 -242 157 -250 13 -8 38 -15 56 -15 60 0 89 29 166 164 61 105 73 132 70 164 -3 36 -6 32 -88 -113 -92 -161 -118 -188 -162 -168 -17 8 -68 87 -168 260 -79 136 -164 284 -190 328 -26 44 -74 127 -107 185 -34 58 -212 366 -397 686 -185 320 -336 590 -336 601 0 11 10 29 23 41 l23 22 697 0 c430 0 697 4 697 9 0 6 -10 17 -22 25 -20 14 -102 16 -698 15 -371 0 -684 -4 -696 -9z"></path><path id="pUSXdBpEX" d="M2130 3161 c-36 -36 -46 -73 -30 -112 31 -75 103 -90 156 -33 47 49 47 93 0 140 -44 44 -86 46 -126 5z"></path><path id="p1HIylNQQ8" d="M2122 2910 c-60 -37 -62 -53 -62 -425 0 -372 2 -388 62 -425 60 -36 131 -18 168 43 19 30 20 52 20 382 0 330 -1 352 -20 382 -37 61 -108 79 -168 43z"></path><path id="pF6SP80y9" d="M320 1255 l0 -25 890 0 890 0 0 25 0 25 -890 0 -890 0 0 -25z"></path><path id="pYXh1k4l3" d="M767 668 c-64 -37 -77 -80 -77 -249 0 -168 4 -189 34 -189 21 0 21 2 18 162 -2 108 1 171 9 190 24 59 17 58 454 58 380 0 402 -1 432 -20 18 -11 35 -30 38 -43 4 -13 5 -97 3 -186 -3 -160 -3 -161 19 -161 30 0 36 36 31 212 -3 128 -5 147 -26 179 -42 69 -43 69 -494 69 -396 0 -404 -1 -441 -22z"></path></g></g></svg>