<svg class="img-fluid" id="outputsvg" xmlns="http://www.w3.org/2000/svg" style="transform: matrix(0.85683, 0, 0, 0.85683, 0, 0); transform-origin: 50% 50%; cursor: move; transition: none 0s ease 0s;" width="354" height="342" viewBox="0 0 3540 3420"><g id="lj7VY1aPFBOIYEdWaOfo3b" fill="rgb(115,169,173)" style="transform: none;"><g style="transform: none;"><path id="pbDH20Qzk" d="M15 3378 c3 -18 12 -82 21 -143 57 -410 109 -669 154 -777 29 -71 100 -198 124 -224 130 -139 196 -194 299 -246 82 -41 208 -86 302 -108 85 -19 286 -53 290 -48 2 3 388 1187 471 1446 l42 132 -524 0 -524 0 0 -155 0 -155 -25 0 -25 0 0 155 0 155 -305 0 -306 0 6 -32z"></path><path id="pZtTrtiDb" d="M1822 3401 c2 -4 122 -360 268 -790 l265 -782 55 6 c234 27 488 115 633 219 71 50 168 149 216 219 47 70 116 221 135 297 33 134 136 760 136 825 0 13 -39 15 -305 15 l-305 0 0 -155 0 -155 -25 0 -25 0 0 155 0 155 -526 0 c-289 0 -524 -4 -522 -9z m1006 -708 l-3 -28 -267 -3 -268 -2 0 30 0 30 271 0 270 0 -3 -27z m2 -98 l0 -25 -270 0 -270 0 0 25 0 25 270 0 270 0 0 -25z"></path></g></g><g id="l6DnfDhHsrHtqMs1lR5eyUH" fill="rgb(211,169,135)" style="transform: none;"><g style="transform: none;"><path id="p7ZJzmaAU" d="M1645 1745 c-5 -1 -37 -9 -70 -16 -258 -56 -488 -248 -599 -499 -112 -251 -97 -533 41 -780 66 -117 206 -257 323 -323 374 -209 814 -130 1098 198 189 218 254 555 160 829 -102 299 -346 516 -654 581 -59 13 -269 20 -299 10z"></path></g></g><g id="l1nSG3UCHZb1Yf2vTGhd9VD" fill="rgb(192,0,0)" style="transform: none;"><g style="transform: none;"><path id="p18hiotD63" d="M1672 3072 l-92 -297 37 -303 37 -302 118 0 c65 0 118 1 118 3 1 1 18 137 38 302 l37 300 -100 297 -101 298 -92 -298z"></path><path id="p1EPF0SwsM" d="M1619 2033 c-87 -185 -100 -215 -96 -219 2 -3 119 -3 259 -2 l255 3 -71 153 -70 152 -118 0 -118 0 -41 -87z"></path></g></g></svg>