<svg class="img-fluid" id="outputsvg" xmlns="http://www.w3.org/2000/svg" style="transform: none; transform-origin: 50% 50%; cursor: move;" width="355" height="356" viewBox="0 0 3550 3560"><g id="l3bFbIoX4Q9GRhML81txqXT" fill="rgb(0,0,0)" style="transform: none;"><g><path id="pRvloM8PU" d="M2541 3538 c-5 -13 -12 -41 -15 -64 -6 -36 -12 -42 -41 -51 -29 -9 -38 -7 -70 15 -29 21 -51 27 -106 30 -89 5 -114 -6 -188 -82 -66 -70 -76 -98 -69 -195 3 -44 11 -68 31 -94 23 -30 25 -38 15 -64 -10 -27 -18 -31 -72 -41 -120 -23 -146 -64 -146 -237 0 -163 20 -193 140 -218 55 -11 63 -16 75 -44 12 -28 11 -34 -13 -70 -22 -31 -27 -52 -30 -115 -4 -66 -1 -82 18 -112 31 -52 116 -124 158 -136 71 -19 159 -4 203 36 15 13 25 15 51 8 30 -9 33 -14 45 -74 7 -36 22 -77 33 -92 l21 -28 -521 0 -520 0 0 -55 0 -55 625 0 625 0 0 39 0 38 50 6 c61 7 95 29 120 76 19 36 19 28 20 -767 l0 -802 -307 2 -308 3 -3 188 -2 187 -855 0 -855 0 0 -191 0 -190 -325 3 -325 3 0 -197 0 -198 1775 0 1775 0 0 1355 c0 904 -3 1355 -10 1355 -6 0 -24 -12 -41 -27 -21 -19 -52 -33 -101 -43 l-71 -15 -29 -70 c-38 -94 -36 -128 7 -192 19 -29 35 -59 35 -67 0 -19 -86 -113 -111 -121 -15 -5 -38 5 -80 35 -70 49 -84 49 -194 3 -69 -29 -70 -31 -77 -74 -14 -87 -28 -118 -58 -134 -40 -21 -99 -19 -137 4 -26 17 -33 29 -43 78 -6 32 -13 67 -15 78 -3 15 -27 30 -83 53 -43 18 -89 32 -101 32 -12 0 -48 -18 -78 -40 -31 -22 -63 -40 -70 -40 -17 0 -123 107 -123 124 0 6 16 35 36 65 31 46 35 59 31 99 -3 26 -15 75 -28 109 l-24 62 -69 12 c-55 9 -76 18 -99 41 -27 26 -29 33 -25 84 6 76 32 100 122 116 l69 13 29 69 c39 95 37 136 -8 198 -25 35 -34 57 -30 73 7 26 99 115 119 115 7 0 39 -18 71 -40 31 -22 67 -40 80 -40 13 0 52 13 87 29 35 16 72 31 81 34 11 4 19 23 23 62 4 31 18 77 31 101 13 25 24 49 24 55 0 5 -32 9 -70 9 -64 0 -71 -2 -79 -22z m-292 -3015 c-4 -119 -6 -131 -32 -175 -18 -31 -44 -57 -75 -75 -47 -28 -49 -28 -248 -31 l-201 -3 -7 32 c-15 77 -78 118 -179 119 -98 0 -158 -41 -173 -120 l-7 -31 -206 3 c-197 3 -208 4 -248 27 -84 48 -112 120 -113 284 l0 97 746 0 746 0 -3 -127z"></path><path id="p1HuKy04TQ" d="M2810 3545 c0 -8 3 -15 8 -15 18 0 51 -70 61 -129 6 -35 12 -65 13 -66 2 -2 32 -15 68 -30 104 -44 120 -43 186 4 31 23 64 41 71 41 20 0 123 -100 123 -119 0 -9 -16 -40 -36 -70 -31 -46 -35 -59 -31 -99 2 -26 16 -74 30 -107 l26 -60 70 -15 c39 -8 82 -25 98 -37 54 -45 53 -54 53 347 l0 370 -285 0 -285 0 -1 -22 0 -23 -9 23 c-9 20 -16 22 -85 22 -60 0 -75 -3 -75 -15z"></path><path id="p18AFg1r5a" d="M220 3285 l0 -55 625 0 625 0 0 55 0 55 -625 0 -625 0 0 -55z"></path><path id="pq7AMqNB" d="M2593 3181 c-152 -56 -254 -184 -274 -344 -27 -215 64 -398 239 -484 54 -26 65 -28 192 -28 131 0 137 1 202 32 189 89 280 281 238 503 -24 126 -108 239 -223 301 -60 33 -66 34 -192 37 -108 2 -139 -1 -182 -17z m286 -127 c117 -53 206 -181 205 -294 -2 -150 -119 -287 -279 -325 -129 -31 -300 75 -354 219 -33 88 -30 149 12 231 47 95 115 153 214 186 71 23 125 19 202 -17z"></path><path id="p6MeAybQd" d="M220 2955 l0 -55 625 0 625 0 0 55 0 55 -625 0 -625 0 0 -55z"></path><path id="p18oumOfok" d="M224 2666 c-3 -7 -4 -33 -2 -57 l3 -44 623 -3 622 -2 0 60 0 60 -620 0 c-520 0 -621 -2 -626 -14z"></path><path id="pR5pqa0MO" d="M227 2343 c-4 -3 -7 -30 -7 -60 l0 -53 625 0 625 0 0 60 0 60 -618 0 c-340 0 -622 -3 -625 -7z"></path><path id="pSszvswaW" d="M220 1530 l0 -440 470 0 470 0 0 440 0 440 -470 0 -470 0 0 -440z m412 301 c-3 -21 -11 -31 -30 -36 -64 -16 -112 -84 -112 -159 0 -43 19 -58 67 -54 32 3 41 8 55 38 l17 35 1 -35 c0 -32 -4 -37 -49 -58 -70 -32 -86 -60 -86 -154 0 -71 2 -79 30 -108 16 -17 46 -36 67 -42 33 -10 38 -15 38 -40 l0 -29 -147 3 -148 3 -3 333 -2 332 153 0 154 0 -5 -29z m416 -303 l-3 -333 -151 -3 -151 -3 5 30 c3 23 11 31 33 36 62 14 109 77 109 148 0 43 -15 57 -62 57 -32 0 -40 -5 -53 -30 -20 -39 -25 -38 -25 8 0 36 2 38 49 55 62 22 82 53 88 131 6 84 -15 123 -84 156 -44 21 -52 29 -53 53 l0 27 150 0 150 0 -2 -332z m-278 106 c0 -8 -4 -14 -10 -14 -5 0 -10 9 -10 21 0 11 5 17 10 14 6 -3 10 -13 10 -21z m-130 -226 c0 -16 -3 -19 -11 -11 -6 6 -8 16 -5 22 11 17 16 13 16 -11z"></path><path id="pylfo07NC" d="M1540 1525 l0 -55 625 0 625 0 0 55 0 55 -625 0 -625 0 0 -55z"></path><path id="phiQHUuQC" d="M1542 1193 l3 -58 623 -3 622 -2 0 60 0 60 -625 0 -626 0 3 -57z"></path></g></g><g id="l2lETBaFhlAhWfLE4QXo4VD" fill="rgb(39,162,141)" style="transform: none;"><g><path id="pvYM4bXkU" d="M2 1963 l3 -1598 338 -3 337 -2 0 190 0 190 825 0 825 0 2 -187 3 -188 338 -3 337 -2 0 890 0 890 -25 -12 c-19 -8 -26 -21 -31 -57 -9 -60 -36 -113 -71 -137 -23 -15 -46 -19 -123 -19 -143 0 -179 26 -203 144 -12 63 -12 63 -61 82 l-49 18 -41 -29 c-88 -63 -151 -59 -235 16 -103 92 -117 163 -52 258 l33 48 -19 51 -20 52 -62 12 c-114 23 -141 59 -141 188 0 140 32 186 146 207 l61 11 18 49 17 49 -31 44 c-62 87 -55 151 27 238 31 32 70 66 86 74 44 23 109 12 163 -27 l45 -33 52 18 53 18 15 61 c8 34 18 69 22 79 8 16 -57 17 -1288 17 l-1296 0 2 -1597z m1438 1322 l0 -25 -595 0 -595 0 0 25 0 25 595 0 595 0 0 -25z m0 -330 l0 -25 -595 0 -595 0 0 25 0 25 595 0 595 0 0 -25z m0 -335 l0 -30 -590 0 c-516 0 -591 2 -596 15 -4 8 -4 22 0 30 5 13 80 15 596 15 l590 0 0 -30z m0 -330 l0 -30 -595 0 -595 0 0 23 c0 13 3 27 7 30 3 4 271 7 595 7 l588 0 0 -30z m-310 -760 l0 -410 -440 0 -440 0 0 410 0 410 440 0 440 0 0 -410z m1630 325 l0 -25 -595 0 -595 0 0 25 0 25 595 0 595 0 0 -25z m0 -330 l0 -25 -595 0 -595 0 0 25 0 25 595 0 595 0 0 -25z m0 -335 l0 -30 -592 2 -593 3 -3 28 -3 27 595 0 596 0 0 -30z"></path><path id="pz2vLmV1A" d="M302 1528 l3 -363 385 0 385 0 3 363 2 362 -390 0 -390 0 2 -362z m416 277 c3 -25 11 -33 52 -51 59 -27 85 -64 84 -119 -1 -58 -27 -92 -85 -112 l-49 -18 0 -82 c0 -69 3 -83 16 -83 16 0 61 41 81 75 10 18 12 19 28 4 15 -15 15 -20 2 -51 -17 -41 -56 -74 -97 -83 -22 -5 -30 -12 -30 -28 -1 -56 -53 -65 -58 -11 -3 26 -9 33 -40 42 -21 7 -51 25 -67 42 -25 26 -30 39 -29 78 1 62 25 97 85 124 l49 23 0 83 0 83 -31 -16 c-17 -9 -37 -31 -45 -50 -17 -42 -32 -51 -51 -33 -12 13 -12 20 3 57 17 44 53 75 97 86 17 5 27 14 27 25 0 34 12 51 34 48 15 -2 22 -11 24 -33z"></path><path id="pxGSPkIui" d="M720 1645 c0 -81 4 -86 55 -63 49 22 41 94 -14 123 -17 8 -32 15 -36 15 -3 0 -5 -34 -5 -75z"></path><path id="pKzaZqleQ" d="M632 1480 c-65 -40 -63 -109 6 -137 l32 -13 0 85 c0 47 -1 85 -2 85 -2 0 -18 -9 -36 -20z"></path><path id="pwYbrf7vi" d="M2926 3543 c4 -10 14 -46 22 -80 12 -46 21 -64 39 -72 l23 -11 0 90 0 90 -46 0 c-40 0 -45 -2 -38 -17z"></path></g></g><g id="l5JcM0d0EUTj29ulILRinzp" fill="rgb(129,128,125)" style="transform: none;"><g><path id="p12B3KP7pz" d="M730 553 c0 -71 5 -148 11 -173 14 -61 50 -111 102 -141 40 -23 51 -24 255 -27 203 -3 212 -4 212 -23 0 -54 56 -136 115 -166 65 -34 177 -11 231 49 30 32 54 82 54 112 l0 25 208 3 c206 3 207 3 254 31 31 18 57 44 75 75 27 45 28 53 31 205 l4 157 -776 0 -776 0 0 -127z m847 -212 c160 -73 66 -326 -103 -279 -20 5 -52 25 -72 43 -35 32 -37 37 -37 97 0 50 5 70 24 97 43 60 113 76 188 42z"></path></g></g><g id="ljqSzZDUpj7UFFZzhOgBBq" fill="rgb(255,204,104)" style="transform: none;"><g><path id="pbcsn6lJD" d="M2653 3546 c-24 -18 -38 -56 -49 -130 -5 -35 -12 -50 -25 -53 -10 -3 -44 -17 -75 -32 l-57 -27 -65 43 c-66 45 -89 50 -125 32 -39 -20 -106 -92 -118 -126 -13 -41 -6 -63 39 -126 39 -54 39 -52 -8 -163 -17 -40 -19 -41 -86 -52 -100 -17 -118 -38 -123 -147 -3 -82 -2 -85 26 -114 23 -22 44 -31 99 -40 l71 -12 15 -47 c9 -26 22 -61 28 -77 12 -28 10 -35 -29 -94 -22 -35 -41 -74 -41 -87 0 -31 81 -128 125 -148 46 -22 67 -17 135 32 l53 38 74 -30 c52 -21 75 -36 78 -51 2 -11 9 -46 15 -78 15 -77 45 -97 143 -97 111 0 138 24 153 142 6 41 11 52 33 60 14 6 49 21 77 33 l51 22 53 -38 c92 -66 132 -61 209 27 61 69 63 100 11 179 l-42 64 29 73 30 73 71 15 c100 21 116 39 120 135 7 122 -10 144 -126 167 l-63 13 -25 60 c-14 33 -28 67 -31 76 -2 9 14 45 37 80 34 53 41 70 36 98 -9 57 -112 151 -165 151 -11 0 -49 -20 -84 -44 -59 -40 -65 -42 -88 -30 -13 7 -45 20 -71 29 -49 17 -51 20 -64 108 -4 28 -16 60 -29 75 -21 25 -30 27 -112 30 -68 3 -93 0 -110 -12z m284 -415 c162 -87 255 -270 224 -440 -25 -134 -111 -244 -239 -304 -62 -30 -74 -32 -172 -32 -94 1 -111 3 -162 28 -87 43 -152 107 -194 192 -113 229 -10 487 229 576 41 15 73 19 152 16 91 -2 105 -6 162 -36z"></path><path id="pjmyVWCk0" d="M2647 3101 c-99 -33 -166 -91 -215 -186 -111 -219 31 -477 285 -520 139 -23 320 84 374 222 35 88 33 208 -4 289 -77 166 -270 251 -440 195z"></path></g></g></svg>